<?xml version="1.0" encoding="UTF-8" standalone="no"?>
<!-- Created with Inkscape (http://www.inkscape.org/) -->

<svg
   version="1.1"
   id="svg1"
   width="210mm"
   height="297mm"
   viewBox="0 0 793.70079 1122.5197"
   sodipodi:docname="FigureS2.svg"
   inkscape:version="1.3.2 (091e20e, 2023-11-25, custom)"
   xmlns:inkscape="http://www.inkscape.org/namespaces/inkscape"
   xmlns:sodipodi="http://sodipodi.sourceforge.net/DTD/sodipodi-0.dtd"
   xmlns="http://www.w3.org/2000/svg"
   xmlns:svg="http://www.w3.org/2000/svg">
  <defs
     id="defs1">
    <clipPath
       clipPathUnits="userSpaceOnUse"
       id="clipPath2">
      <path
         d="M 0,0 H 960 V 240 H 0 Z"
         id="path2" />
    </clipPath>
  </defs>
  <sodipodi:namedview
     id="namedview1"
     pagecolor="#ffffff"
     bordercolor="#666666"
     borderopacity="1.0"
     inkscape:showpageshadow="2"
     inkscape:pageopacity="0.0"
     inkscape:pagecheckerboard="0"
     inkscape:deskcolor="#d1d1d1"
     inkscape:zoom="0.65508655"
     inkscape:cx="177.8391"
     inkscape:cy="179.36561"
     inkscape:window-width="1920"
     inkscape:window-height="1017"
     inkscape:window-x="-8"
     inkscape:window-y="-8"
     inkscape:window-maximized="1"
     inkscape:current-layer="g1"
     inkscape:document-units="mm">
    <inkscape:page
       x="0"
       y="0"
       inkscape:label="1"
       id="page1"
       width="793.70074"
       height="1122.5198"
       margin="0"
       bleed="0" />
  </sodipodi:namedview>
  <g
     id="g1"
     inkscape:groupmode="layer"
     inkscape:label="1">
    <path
       id="path4"
       d="m 121.6,184.8 h 61.6 V 53.6 h -61.6 z"
       style="fill:#ffffff;fill-opacity:1;fill-rule:nonzero;stroke:none;stroke-width:0.8"
       inkscape:export-filename="FigureS2.png"
       inkscape:export-xdpi="600"
       inkscape:export-ydpi="600" />
    <path
       id="path5"
       d="M 121.59999,184.8 H 183.2"
       style="fill:none;stroke:#262626;stroke-width:0.666666;stroke-linecap:square;stroke-linejoin:round;stroke-miterlimit:10;stroke-dasharray:none;stroke-opacity:1" />
    <path
       id="path7"
       d="m 121.59999,184.8 v -1.31204"
       style="fill:none;stroke:#262626;stroke-width:0.666666;stroke-linecap:square;stroke-linejoin:round;stroke-miterlimit:10;stroke-dasharray:none;stroke-opacity:1" />
    <path
       id="path8"
       d="m 152.40002,184.8 v -1.31204"
       style="fill:none;stroke:#262626;stroke-width:0.666666;stroke-linecap:square;stroke-linejoin:round;stroke-miterlimit:10;stroke-dasharray:none;stroke-opacity:1" />
    <path
       id="path13"
       d="m 108.54688,198.23046 c 0,-1.125 0.11328,-2.03125 0.34375,-2.71875 0.23828,-0.6875 0.58593,-1.21875 1.04687,-1.59375 0.45703,-0.375 1.03125,-0.5625 1.71875,-0.5625 0.51953,0 0.97266,0.10547 1.35938,0.3125 0.38281,0.19922 0.70312,0.4961 0.95312,0.89063 0.25,0.38672 0.44531,0.85937 0.59375,1.42187 0.14453,0.55469 0.21875,1.30469 0.21875,2.25 0,1.11719 -0.12109,2.01563 -0.35937,2.70313 -0.23047,0.6875 -0.57422,1.21875 -1.03125,1.59375 -0.44922,0.375 -1.02735,0.5625 -1.73438,0.5625 -0.91797,0 -1.63672,-0.32813 -2.15625,-0.98438 -0.63672,-0.78906 -0.95312,-2.08203 -0.95312,-3.875 z m 1.20312,0 c 0,1.5625 0.17969,2.60547 0.54688,3.125 0.375,0.52344 0.82812,0.78125 1.35937,0.78125 0.53906,0 0.99219,-0.25781 1.35938,-0.78125 0.375,-0.51953 0.5625,-1.5625 0.5625,-3.125 0,-1.57031 -0.1875,-2.61328 -0.5625,-3.125 -0.36719,-0.51953 -0.82032,-0.78125 -1.35938,-0.78125 -0.54297,0 -0.97656,0.23047 -1.29687,0.6875 -0.40625,0.58594 -0.60938,1.65625 -0.60938,3.21875 z m 6.86719,4.70313 v -1.32813 h 1.34375 v 1.32813 z m 3.05078,-4.70313 c 0,-1.125 0.11328,-2.03125 0.34375,-2.71875 0.23828,-0.6875 0.58594,-1.21875 1.04687,-1.59375 0.45704,-0.375 1.03125,-0.5625 1.71875,-0.5625 0.51954,0 0.97266,0.10547 1.35938,0.3125 0.38281,0.19922 0.70312,0.4961 0.95312,0.89063 0.25,0.38672 0.44532,0.85937 0.59375,1.42187 0.14454,0.55469 0.21875,1.30469 0.21875,2.25 0,1.11719 -0.12109,2.01563 -0.35937,2.70313 -0.23047,0.6875 -0.57422,1.21875 -1.03125,1.59375 -0.44922,0.375 -1.02734,0.5625 -1.73438,0.5625 -0.91796,0 -1.63671,-0.32813 -2.15625,-0.98438 -0.63671,-0.78906 -0.95312,-2.08203 -0.95312,-3.875 z m 1.20312,0 c 0,1.5625 0.17969,2.60547 0.54688,3.125 0.375,0.52344 0.82812,0.78125 1.35937,0.78125 0.53907,0 0.99219,-0.25781 1.35938,-0.78125 0.375,-0.51953 0.5625,-1.5625 0.5625,-3.125 0,-1.57031 -0.1875,-2.61328 -0.5625,-3.125 -0.36719,-0.51953 -0.82031,-0.78125 -1.35938,-0.78125 -0.54296,0 -0.97656,0.23047 -1.29687,0.6875 -0.40625,0.58594 -0.60938,1.65625 -0.60938,3.21875 z m 8.02344,-0.46875 c -0.49219,-0.17578 -0.85547,-0.42968 -1.09375,-0.76562 -0.23047,-0.33203 -0.34375,-0.72656 -0.34375,-1.1875 0,-0.6875 0.25,-1.26563 0.75,-1.73438 0.5,-0.47656 1.16016,-0.71875 1.98438,-0.71875 0.83203,0 1.5039,0.2461 2.01562,0.73438 0.50781,0.48047 0.76563,1.0625 0.76563,1.75 0,0.44922 -0.1211,0.83984 -0.35938,1.17187 -0.23047,0.32422 -0.57812,0.57422 -1.04687,0.75 0.58203,0.1875 1.02343,0.4961 1.32812,0.92188 0.3125,0.42969 0.46875,0.93359 0.46875,1.51562 0,0.82422 -0.29297,1.51172 -0.875,2.0625 -0.57422,0.55469 -1.32812,0.82813 -2.26562,0.82813 -0.94922,0 -1.71094,-0.27344 -2.28125,-0.82813 -0.57422,-0.5625 -0.85938,-1.25781 -0.85938,-2.09375 0,-0.61328 0.15625,-1.1289 0.46875,-1.54687 0.3125,-0.42578 0.75781,-0.71094 1.34375,-0.85938 z m -0.23437,-1.98437 c 0,0.44922 0.14453,0.82031 0.4375,1.10937 0.28906,0.28125 0.66406,0.42188 1.125,0.42188 0.44531,0 0.8164,-0.14063 1.10937,-0.42188 0.28906,-0.28125 0.4375,-0.6289 0.4375,-1.04687 0,-0.42578 -0.15234,-0.78516 -0.45312,-1.07813 -0.29297,-0.28906 -0.66407,-0.4375 -1.10938,-0.4375 -0.44922,0 -0.82031,0.14844 -1.10937,0.4375 -0.29297,0.28125 -0.4375,0.6211 -0.4375,1.01563 z m -0.375,4.40625 c 0,0.33594 0.0781,0.65625 0.23437,0.96875 0.15625,0.3125 0.39063,0.55859 0.70313,0.73437 0.3125,0.16797 0.64843,0.25 1.01562,0.25 0.55078,0 1.00781,-0.17578 1.375,-0.53125 0.36328,-0.36328 0.54688,-0.82812 0.54688,-1.39062 0,-0.5625 -0.1875,-1.02344 -0.5625,-1.39063 -0.375,-0.375 -0.84375,-0.5625 -1.40625,-0.5625 -0.55469,0 -1.01172,0.1836 -1.375,0.54688 -0.35547,0.36719 -0.53125,0.82422 -0.53125,1.375 z m 0,0"
       style="fill:#262626;fill-opacity:1;fill-rule:nonzero;stroke:none;stroke-width:0.8"
       aria-label="0.08" />
    <path
       id="path14"
       d="m 139.34766,198.23046 c 0,-1.125 0.11328,-2.03125 0.34375,-2.71875 0.23828,-0.6875 0.58593,-1.21875 1.04687,-1.59375 0.45703,-0.375 1.03125,-0.5625 1.71875,-0.5625 0.51953,0 0.97266,0.10547 1.35938,0.3125 0.38281,0.19922 0.70312,0.4961 0.95312,0.89063 0.25,0.38672 0.44531,0.85937 0.59375,1.42187 0.14453,0.55469 0.21875,1.30469 0.21875,2.25 0,1.11719 -0.12109,2.01563 -0.35937,2.70313 -0.23047,0.6875 -0.57422,1.21875 -1.03125,1.59375 -0.44922,0.375 -1.02735,0.5625 -1.73438,0.5625 -0.91797,0 -1.63672,-0.32813 -2.15625,-0.98438 -0.63672,-0.78906 -0.95312,-2.08203 -0.95312,-3.875 z m 1.20312,0 c 0,1.5625 0.17969,2.60547 0.54688,3.125 0.375,0.52344 0.82812,0.78125 1.35937,0.78125 0.53906,0 0.99219,-0.25781 1.35938,-0.78125 0.375,-0.51953 0.5625,-1.5625 0.5625,-3.125 0,-1.57031 -0.1875,-2.61328 -0.5625,-3.125 -0.36719,-0.51953 -0.82032,-0.78125 -1.35938,-0.78125 -0.54297,0 -0.97656,0.23047 -1.29687,0.6875 -0.40625,0.58594 -0.60938,1.65625 -0.60938,3.21875 z m 6.86719,4.70313 v -1.32813 h 1.34375 v 1.32813 z m 3.05078,-4.70313 c 0,-1.125 0.11328,-2.03125 0.34375,-2.71875 0.23828,-0.6875 0.58594,-1.21875 1.04687,-1.59375 0.45704,-0.375 1.03126,-0.5625 1.71876,-0.5625 0.51953,0 0.97265,0.10547 1.35937,0.3125 0.38281,0.19922 0.70313,0.4961 0.95313,0.89063 0.25,0.38672 0.44531,0.85937 0.59374,1.42187 0.14454,0.55469 0.21876,1.30469 0.21876,2.25 0,1.11719 -0.1211,2.01563 -0.35938,2.70313 -0.23047,0.6875 -0.57422,1.21875 -1.03125,1.59375 -0.44922,0.375 -1.02734,0.5625 -1.73437,0.5625 -0.91797,0 -1.63672,-0.32813 -2.15626,-0.98438 -0.63671,-0.78906 -0.95312,-2.08203 -0.95312,-3.875 z m 1.20312,0 c 0,1.5625 0.17969,2.60547 0.54688,3.125 0.375,0.52344 0.82812,0.78125 1.35938,0.78125 0.53906,0 0.99218,-0.25781 1.35937,-0.78125 0.375,-0.51953 0.5625,-1.5625 0.5625,-3.125 0,-1.57031 -0.1875,-2.61328 -0.5625,-3.125 -0.36719,-0.51953 -0.82031,-0.78125 -1.35937,-0.78125 -0.54297,0 -0.97657,0.23047 -1.29688,0.6875 -0.40625,0.58594 -0.60938,1.65625 -0.60938,3.21875 z m 6.39454,2.5 1.125,-0.10937 c 0.0937,0.53125 0.27343,0.91797 0.54687,1.15625 0.26953,0.24219 0.61328,0.35937 1.03125,0.35937 0.35156,0 0.66406,-0.082 0.9375,-0.25 0.28125,-0.16406 0.50391,-0.38281 0.67188,-0.65625 0.17578,-0.28125 0.32031,-0.65625 0.4375,-1.125 0.11328,-0.46875 0.17187,-0.9414 0.17187,-1.42187 0,-0.0508 0,-0.12891 0,-0.23438 -0.24219,0.36719 -0.5625,0.66797 -0.96875,0.90625 -0.39844,0.23047 -0.83594,0.34375 -1.3125,0.34375 -0.79297,0 -1.46484,-0.28515 -2.01562,-0.85937 -0.54297,-0.57031 -0.8125,-1.32813 -0.8125,-2.26563 0,-0.96875 0.28515,-1.74218 0.85937,-2.32812 0.57031,-0.59375 1.28516,-0.89063 2.14063,-0.89063 0.625,0 1.1914,0.16797 1.70312,0.5 0.51953,0.33594 0.91016,0.8125 1.17188,1.4375 0.26953,0.61719 0.40625,1.50782 0.40625,2.67188 0,1.21875 -0.13672,2.19531 -0.40625,2.92187 -0.26172,0.71875 -0.65235,1.26563 -1.17188,1.64063 -0.52344,0.375 -1.13672,0.5625 -1.84375,0.5625 -0.74219,0 -1.35156,-0.20313 -1.82812,-0.60938 -0.46875,-0.41406 -0.75,-1 -0.84375,-1.75 z m 4.79687,-4.21875 c 0,-0.66406 -0.18359,-1.19531 -0.54687,-1.59375 -0.35547,-0.39453 -0.78125,-0.59375 -1.28125,-0.59375 -0.52344,0 -0.98047,0.21485 -1.375,0.64063 -0.38672,0.42969 -0.57813,0.98047 -0.57813,1.65625 0,0.60547 0.17969,1.10156 0.54688,1.48437 0.375,0.375 0.82812,0.5625 1.35937,0.5625 0.55078,0 1,-0.1875 1.34375,-0.5625 0.35156,-0.38281 0.53125,-0.91406 0.53125,-1.59375 z m 0,0"
       style="fill:#262626;fill-opacity:1;fill-rule:nonzero;stroke:none;stroke-width:0.8"
       aria-label="0.09" />
    <path
       id="path15"
       d="m 174.14844,198.23046 c 0,-1.125 0.11328,-2.03125 0.34375,-2.71875 0.23828,-0.6875 0.58593,-1.21875 1.04687,-1.59375 0.45703,-0.375 1.03125,-0.5625 1.71875,-0.5625 0.51953,0 0.97266,0.10547 1.35938,0.3125 0.38281,0.19922 0.70312,0.4961 0.95312,0.89063 0.25,0.38672 0.44531,0.85937 0.59375,1.42187 0.14453,0.55469 0.21875,1.30469 0.21875,2.25 0,1.11719 -0.12109,2.01563 -0.35937,2.70313 -0.23047,0.6875 -0.57422,1.21875 -1.03125,1.59375 -0.44922,0.375 -1.02735,0.5625 -1.73438,0.5625 -0.91797,0 -1.63672,-0.32813 -2.15625,-0.98438 -0.63672,-0.78906 -0.95312,-2.08203 -0.95312,-3.875 z m 1.20312,0 c 0,1.5625 0.17969,2.60547 0.54688,3.125 0.375,0.52344 0.82812,0.78125 1.35937,0.78125 0.53906,0 0.99219,-0.25781 1.35938,-0.78125 0.375,-0.51953 0.5625,-1.5625 0.5625,-3.125 0,-1.57031 -0.1875,-2.61328 -0.5625,-3.125 -0.36719,-0.51953 -0.82032,-0.78125 -1.35938,-0.78125 -0.54297,0 -0.97656,0.23047 -1.29687,0.6875 -0.40625,0.58594 -0.60938,1.65625 -0.60938,3.21875 z m 6.86328,4.70313 v -1.32813 h 1.34375 v 1.32813 z m 7.47266,0 h -1.17188 v -7.46875 c -0.28124,0.27344 -0.65234,0.54297 -1.10937,0.8125 -0.46094,0.27344 -0.87109,0.47656 -1.23437,0.60937 v -1.14062 c 0.65624,-0.30078 1.22656,-0.67188 1.71874,-1.10938 0.48829,-0.44531 0.83204,-0.875 1.03126,-1.28125 h 0.76562 z m 0,0"
       style="fill:#262626;fill-opacity:1;fill-rule:nonzero;stroke:none;stroke-width:0.8"
       aria-label="0.1" />
    <path
       id="path16"
       d="M 121.59999,184.8 V 53.6"
       style="fill:none;stroke:#262626;stroke-width:0.666666;stroke-linecap:square;stroke-linejoin:round;stroke-miterlimit:10;stroke-dasharray:none;stroke-opacity:1" />
    <path
       id="path18"
       d="m 121.59999,184.8 h 1.312"
       style="fill:none;stroke:#262626;stroke-width:0.666666;stroke-linecap:square;stroke-linejoin:round;stroke-miterlimit:10;stroke-dasharray:none;stroke-opacity:1" />
    <path
       id="path19"
       d="m 121.59999,141.06667 h 1.312"
       style="fill:none;stroke:#262626;stroke-width:0.666666;stroke-linecap:square;stroke-linejoin:round;stroke-miterlimit:10;stroke-dasharray:none;stroke-opacity:1" />
    <path
       id="path20"
       d="m 121.59999,97.333331 h 1.312"
       style="fill:none;stroke:#262626;stroke-width:0.666666;stroke-linecap:square;stroke-linejoin:round;stroke-miterlimit:10;stroke-dasharray:none;stroke-opacity:1" />
    <path
       id="path26"
       d="m 96.6875,186.74219 v -1.1875 h 3.59375 v 1.1875 z m 8.33203,2.85937 v -2.28125 h -4.14062 v -1.07812 l 4.34375,-6.1875 h 0.96875 v 6.1875 h 1.28125 v 1.07812 h -1.28125 v 2.28125 z m 0,-3.35937 v -4.29688 l -2.98437,4.29688 z m 9.80469,2.23437 v 1.125 h -6.29688 c -0.0117,-0.28125 0.0352,-0.55078 0.14063,-0.8125 0.15625,-0.42578 0.41015,-0.84765 0.76562,-1.26562 0.35157,-0.41407 0.86329,-0.89844 1.53125,-1.45313 1.03907,-0.84375 1.74219,-1.51562 2.10938,-2.01562 0.36328,-0.5 0.54687,-0.96875 0.54687,-1.40625 0,-0.46875 -0.16797,-0.85938 -0.5,-1.17188 -0.33593,-0.32031 -0.76562,-0.48437 -1.29687,-0.48437 -0.57422,0 -1.03125,0.17187 -1.375,0.51562 -0.33594,0.33594 -0.5,0.79688 -0.5,1.39063 l -1.20313,-0.10938 c 0.082,-0.90625 0.39063,-1.59375 0.92188,-2.0625 0.53906,-0.46875 1.26562,-0.70312 2.17187,-0.70312 0.91407,0 1.64063,0.25781 2.17188,0.76562 0.53906,0.5 0.8125,1.125 0.8125,1.875 0,0.38672 -0.0781,0.76563 -0.23438,1.14063 -0.15625,0.36719 -0.41796,0.75 -0.78125,1.15625 -0.36718,0.40625 -0.96875,0.96484 -1.8125,1.67187 -0.69921,0.59375 -1.15234,1 -1.35937,1.21875 -0.19922,0.21094 -0.35938,0.41797 -0.48438,0.625 z m 0,0"
       style="fill:#262626;fill-opacity:1;fill-rule:nonzero;stroke:none;stroke-width:0.8"
       aria-label="-42" />
    <path
       id="path27"
       d="m 96.6875,143.00781 v -1.1875 h 3.59375 v 1.1875 z m 8.33203,2.85938 v -2.28125 h -4.14062 v -1.07813 l 4.34375,-6.1875 h 0.96875 v 6.1875 h 1.28125 v 1.07813 h -1.28125 v 2.28125 z m 0,-3.35938 v -4.29687 l -2.98437,4.29687 z m 3.64844,-1.34375 c 0,-1.125 0.11328,-2.03125 0.34375,-2.71875 0.23828,-0.6875 0.58594,-1.21875 1.04687,-1.59375 0.45703,-0.375 1.03125,-0.5625 1.71875,-0.5625 0.51954,0 0.97266,0.10547 1.35938,0.3125 0.38281,0.19922 0.70312,0.4961 0.95312,0.89063 0.25,0.38672 0.44532,0.85937 0.59375,1.42187 0.14453,0.55469 0.21875,1.30469 0.21875,2.25 0,1.11719 -0.12109,2.01563 -0.35937,2.70313 -0.23047,0.6875 -0.57422,1.21875 -1.03125,1.59375 -0.44922,0.375 -1.02734,0.5625 -1.73438,0.5625 -0.91796,0 -1.63672,-0.32813 -2.15625,-0.98438 -0.63671,-0.78906 -0.95312,-2.08203 -0.95312,-3.875 z m 1.20312,0 c 0,1.5625 0.17969,2.60547 0.54688,3.125 0.375,0.52344 0.82812,0.78125 1.35937,0.78125 0.53907,0 0.99219,-0.25781 1.35938,-0.78125 0.375,-0.51953 0.5625,-1.5625 0.5625,-3.125 0,-1.57031 -0.1875,-2.61328 -0.5625,-3.125 -0.36719,-0.51953 -0.82031,-0.78125 -1.35938,-0.78125 -0.54296,0 -0.97656,0.23047 -1.29687,0.6875 -0.40625,0.58594 -0.60938,1.65625 -0.60938,3.21875 z m 0,0"
       style="fill:#262626;fill-opacity:1;fill-rule:nonzero;stroke:none;stroke-width:0.8"
       aria-label="-40" />
    <path
       id="path28"
       d="m 96.6875,99.273437 v -1.1875 h 3.59375 v 1.1875 z m 4.58203,0.34375 1.17188,-0.15625 c 0.13281,0.667973 0.36328,1.148443 0.6875,1.437503 0.32031,0.29297 0.71093,0.4375 1.17187,0.4375 0.55078,0 1.01563,-0.19141 1.39063,-0.57813 0.38281,-0.38281 0.57812,-0.859373 0.57812,-1.421873 0,-0.53125 -0.17969,-0.96875 -0.53125,-1.3125 -0.34375,-0.351562 -0.78906,-0.53125 -1.32812,-0.53125 -0.23047,0 -0.50782,0.04297 -0.82813,0.125 l 0.125,-1.03125 c 0.082,0.01172 0.14453,0.01563 0.1875,0.01563 0.5,0 0.94531,-0.128906 1.34375,-0.390625 0.40625,-0.257812 0.60938,-0.660156 0.60938,-1.203125 0,-0.425781 -0.14844,-0.78125 -0.4375,-1.062499 -0.29297,-0.281251 -0.66797,-0.421876 -1.125,-0.421876 -0.46094,0 -0.83985,0.148438 -1.14063,0.4375 -0.30469,0.28125 -0.5,0.710938 -0.59375,1.28125 l -1.17187,-0.21875 c 0.14453,-0.78125 0.47265,-1.382812 0.98437,-1.8125 0.50781,-0.4375 1.14063,-0.65625 1.89063,-0.65625 0.51953,0 1,0.117188 1.4375,0.34375 0.4375,0.21875 0.76953,0.523438 1,0.90625 0.23828,0.386719 0.35937,0.796875 0.35937,1.234375 0,0.40625 -0.11719,0.78125 -0.34375,1.125 -0.21875,0.335938 -0.54297,0.601563 -0.96875,0.796875 0.5625,0.136719 1,0.414063 1.3125,0.828125 0.3125,0.40625 0.46875,0.917969 0.46875,1.53125 0,0.835943 -0.30859,1.542973 -0.92187,2.125003 -0.60547,0.57422 -1.3711,0.85937 -2.29688,0.85937 -0.83594,0 -1.53125,-0.25 -2.09375,-0.75 -0.55469,-0.5 -0.86719,-1.14453 -0.9375,-1.937498 z m 9.21094,-2.65625 c -0.49219,-0.175781 -0.85547,-0.429687 -1.09375,-0.765625 -0.23047,-0.332031 -0.34375,-0.726562 -0.34375,-1.1875 0,-0.6875 0.25,-1.265625 0.75,-1.734375 0.5,-0.476562 1.16015,-0.71875 1.98437,-0.71875 0.83204,0 1.50391,0.246094 2.01563,0.734375 0.50781,0.480469 0.76562,1.0625 0.76562,1.75 0,0.449219 -0.12109,0.839844 -0.35937,1.171875 -0.23047,0.324219 -0.57813,0.574219 -1.04688,0.75 0.58204,0.1875 1.02344,0.496094 1.32813,0.921875 0.3125,0.429688 0.46875,0.933594 0.46875,1.515625 0,0.824223 -0.29297,1.511723 -0.875,2.062503 -0.57422,0.55469 -1.32813,0.82812 -2.26563,0.82812 -0.94921,0 -1.71093,-0.27343 -2.28125,-0.82812 -0.57422,-0.5625 -0.85937,-1.25781 -0.85937,-2.093753 0,-0.613281 0.15625,-1.128906 0.46875,-1.546875 0.3125,-0.425781 0.75781,-0.710937 1.34375,-0.859375 z m -0.23438,-1.984375 c 0,0.449219 0.14453,0.820313 0.4375,1.109375 0.28907,0.28125 0.66407,0.421875 1.125,0.421875 0.44532,0 0.81641,-0.140625 1.10938,-0.421875 0.28906,-0.28125 0.4375,-0.628906 0.4375,-1.046875 0,-0.425781 -0.15235,-0.785156 -0.45313,-1.078125 -0.29296,-0.289062 -0.66406,-0.4375 -1.10937,-0.4375 -0.44922,0 -0.82031,0.148438 -1.10938,0.4375 -0.29297,0.28125 -0.4375,0.621094 -0.4375,1.015625 z m -0.375,4.40625 c 0,0.335938 0.0781,0.656248 0.23438,0.968748 0.15625,0.3125 0.39062,0.5586 0.70312,0.73438 0.3125,0.16797 0.64844,0.25 1.01563,0.25 0.55078,0 1.00781,-0.17578 1.375,-0.53125 0.36328,-0.36328 0.54687,-0.828128 0.54687,-1.390628 0,-0.5625 -0.1875,-1.023437 -0.5625,-1.390625 -0.375,-0.375 -0.84375,-0.5625 -1.40625,-0.5625 -0.55468,0 -1.01172,0.183594 -1.375,0.546875 -0.35546,0.367188 -0.53125,0.824219 -0.53125,1.375 z m 0,0"
       style="fill:#262626;fill-opacity:1;fill-rule:nonzero;stroke:none;stroke-width:0.8"
       aria-label="-38" />
    <path
       id="path29"
       d="m 96.6875,55.539062 v -1.1875 h 3.59375 v 1.1875 z m 4.58203,0.34375 1.17188,-0.15625 c 0.13281,0.667969 0.36328,1.148438 0.6875,1.4375 0.32031,0.292969 0.71093,0.4375 1.17187,0.4375 0.55078,0 1.01563,-0.191406 1.39063,-0.578124 0.38281,-0.382813 0.57812,-0.859376 0.57812,-1.421876 0,-0.53125 -0.17969,-0.96875 -0.53125,-1.3125 -0.34375,-0.351562 -0.78906,-0.53125 -1.32812,-0.53125 -0.23047,0 -0.50782,0.04297 -0.82813,0.125 l 0.125,-1.03125 c 0.082,0.01172 0.14453,0.01563 0.1875,0.01563 0.5,0 0.94531,-0.128906 1.34375,-0.390625 0.40625,-0.257812 0.60938,-0.660156 0.60938,-1.203125 0,-0.425781 -0.14844,-0.78125 -0.4375,-1.062499 -0.29297,-0.281251 -0.66797,-0.421876 -1.125,-0.421876 -0.46094,0 -0.83985,0.148438 -1.14063,0.4375 -0.30469,0.28125 -0.5,0.710938 -0.59375,1.28125 l -1.17187,-0.21875 c 0.14453,-0.78125 0.47265,-1.382812 0.98437,-1.8125 0.50781,-0.4375 1.14063,-0.656249 1.89063,-0.656249 0.51953,0 1,0.117187 1.4375,0.343749 0.4375,0.218751 0.76953,0.523438 1,0.906251 0.23828,0.386718 0.35937,0.796875 0.35937,1.234375 0,0.40625 -0.11719,0.78125 -0.34375,1.125 -0.21875,0.335937 -0.54297,0.601562 -0.96875,0.796874 0.5625,0.136719 1,0.414063 1.3125,0.828126 0.3125,0.40625 0.46875,0.917968 0.46875,1.53125 0,0.835937 -0.30859,1.542968 -0.92187,2.124999 -0.60547,0.574219 -1.3711,0.859376 -2.29688,0.859376 -0.83594,0 -1.53125,-0.25 -2.09375,-0.75 -0.55469,-0.500001 -0.86719,-1.144532 -0.9375,-1.937501 z m 13.47656,-4.6875 -1.15625,0.09375 c -0.10546,-0.457031 -0.25,-0.789062 -0.4375,-1 -0.32422,-0.332031 -0.71484,-0.5 -1.17187,-0.5 -0.375,0 -0.70313,0.105469 -0.98438,0.3125 -0.375,0.26172 -0.67187,0.652344 -0.89062,1.171876 -0.21094,0.511718 -0.3125,1.246093 -0.3125,2.203124 0.28125,-0.425781 0.625,-0.742187 1.03125,-0.953124 0.40625,-0.207032 0.83203,-0.3125 1.28125,-0.3125 0.78125,0 1.44141,0.289062 1.98437,0.859374 0.55078,0.574219 0.82813,1.320313 0.82813,2.234376 0,0.59375 -0.13281,1.152343 -0.39063,1.671874 -0.25,0.511719 -0.60546,0.902344 -1.0625,1.171875 -0.44922,0.269532 -0.96093,0.40625 -1.53125,0.40625 -0.98047,0 -1.77734,-0.351562 -2.39062,-1.062499 -0.61719,-0.71875 -0.92188,-1.90625 -0.92188,-3.5625 0,-1.84375 0.33594,-3.179688 1.01563,-4.015626 0.60156,-0.726562 1.40625,-1.093749 2.40625,-1.093749 0.75,0 1.36328,0.214843 1.84375,0.640625 0.47656,0.417968 0.76562,0.996093 0.85937,1.734374 z m -4.78125,4.109376 c 0,0.40625 0.082,0.796874 0.25,1.171874 0.17578,0.367188 0.41407,0.648438 0.71875,0.84375 0.3125,0.1875 0.64063,0.28125 0.98438,0.28125 0.48828,0 0.91015,-0.195312 1.26562,-0.59375 0.36329,-0.40625 0.54688,-0.953124 0.54688,-1.640624 0,-0.65625 -0.17969,-1.171876 -0.53125,-1.546876 -0.35547,-0.382812 -0.79688,-0.578124 -1.32813,-0.578124 -0.53125,0 -0.98437,0.195312 -1.35937,0.578124 -0.36719,0.375 -0.54688,0.871094 -0.54688,1.484376 z m 0,0"
       style="fill:#262626;fill-opacity:1;fill-rule:nonzero;stroke:none;stroke-width:0.8"
       aria-label="-36" />
    <path
       id="path30"
       d="m 127.19999,54.728601 2.80002,-0.156903 2.8,-0.130043 2.8,-0.09151 2.79999,-0.03937 2.8,0.0111 2.79999,0.06498 2.8,0.114862 2.8,0.136299 2.80003,0.181927 2.79999,0.233979 2.8,0.296289 2.79999,0.355597 2.8,0.423579 2.8,0.472712 2.79999,0.571892 2.8,0.573308 2.79999,0.647216 2.80004,0.723872 2.8,0.789604 2.79998,0.862001"
       style="fill:none;stroke:#000000;stroke-width:1.33334;stroke-linecap:butt;stroke-linejoin:round;stroke-miterlimit:10;stroke-dasharray:none;stroke-opacity:1" />
    <path
       id="path31"
       d="m 155.20001,51.053918 v 8 m -4,-4 h 8 m -6.82843,-2.828427 5.65685,5.656854 m -5.65685,0 5.65685,-5.656854"
       style="fill:none;stroke:#000000;stroke-width:0.666666;stroke-linecap:butt;stroke-linejoin:miter;stroke-miterlimit:10;stroke-dasharray:none;stroke-opacity:1" />
    <path
       id="path32"
       d="m 207.6,184.8 h 60.8 V 53.6 h -60.8 z"
       style="fill:#ffffff;fill-opacity:1;fill-rule:nonzero;stroke:none;stroke-width:0.8" />
    <path
       id="path33"
       d="m 207.6,184.8 h 60.8"
       style="fill:none;stroke:#262626;stroke-width:0.666666;stroke-linecap:square;stroke-linejoin:round;stroke-miterlimit:10;stroke-dasharray:none;stroke-opacity:1" />
    <path
       id="path35"
       d="m 212.04878,184.8 v -1.312"
       style="fill:none;stroke:#262626;stroke-width:0.666666;stroke-linecap:square;stroke-linejoin:round;stroke-miterlimit:10;stroke-dasharray:none;stroke-opacity:1" />
    <path
       id="path36"
       d="m 242.94309,184.8 v -1.312"
       style="fill:none;stroke:#262626;stroke-width:0.666666;stroke-linecap:square;stroke-linejoin:round;stroke-miterlimit:10;stroke-dasharray:none;stroke-opacity:1" />
    <path
       id="path39"
       d="m 206.76172,202.9336 v -2.28125 h -4.14063 v -1.07813 l 4.34375,-6.1875 h 0.96875 v 6.1875 h 1.28125 v 1.07813 h -1.28125 v 2.28125 z m 0,-3.35938 v -4.29687 l -2.98438,4.29687 z m 4.30469,3.35938 v -1.32813 h 1.34375 v 1.32813 z m 3.05078,-2.5 1.23437,-0.10938 c 0.0937,0.60547 0.30469,1.0586 0.64063,1.35938 0.33203,0.30468 0.73437,0.45312 1.20312,0.45312 0.5625,0 1.03516,-0.21094 1.42188,-0.64062 0.39453,-0.42578 0.59375,-0.98828 0.59375,-1.6875 0,-0.66407 -0.1875,-1.19141 -0.5625,-1.57813 -0.375,-0.39453 -0.8711,-0.59375 -1.48438,-0.59375 -0.375,0 -0.71484,0.0899 -1.01562,0.26563 -0.30469,0.16797 -0.54297,0.39062 -0.71875,0.67187 l -1.09375,-0.15625 0.92187,-4.89062 h 4.75 v 1.10937 h -3.8125 l -0.51562,2.5625 c 0.57031,-0.39453 1.17187,-0.59375 1.79687,-0.59375 0.83203,0 1.53516,0.29297 2.10938,0.875 0.57031,0.57422 0.85937,1.3125 0.85937,2.21875 0,0.86719 -0.25,1.60938 -0.75,2.23438 -0.61718,0.77343 -1.44922,1.15625 -2.5,1.15625 -0.875,0 -1.58984,-0.23828 -2.14062,-0.71875 -0.54297,-0.48828 -0.85547,-1.13282 -0.9375,-1.9375 z m 0,0"
       style="fill:#262626;fill-opacity:1;fill-rule:nonzero;stroke:none;stroke-width:0.8"
       aria-label="4.5" />
    <path
       id="path40"
       d="m 239.48828,200.4336 1.23438,-0.10938 c 0.0937,0.60547 0.30468,1.0586 0.64062,1.35938 0.33203,0.30468 0.73438,0.45312 1.20313,0.45312 0.5625,0 1.03515,-0.21094 1.42187,-0.64062 0.39453,-0.42578 0.59375,-0.98828 0.59375,-1.6875 0,-0.66407 -0.1875,-1.19141 -0.5625,-1.57813 -0.375,-0.39453 -0.87109,-0.59375 -1.48437,-0.59375 -0.375,0 -0.71485,0.0899 -1.01563,0.26563 -0.30469,0.16797 -0.54297,0.39062 -0.71875,0.67187 l -1.09375,-0.15625 0.92188,-4.89062 h 4.75 v 1.10937 h -3.8125 l -0.51563,2.5625 c 0.57031,-0.39453 1.17188,-0.59375 1.79688,-0.59375 0.83203,0 1.53515,0.29297 2.10937,0.875 0.57031,0.57422 0.85938,1.3125 0.85938,2.21875 0,0.86719 -0.25,1.60938 -0.75,2.23438 -0.61719,0.77343 -1.44922,1.15625 -2.5,1.15625 -0.875,0 -1.58985,-0.23828 -2.14063,-0.71875 -0.54297,-0.48828 -0.85547,-1.13282 -0.9375,-1.9375 z m 0,0"
       style="fill:#262626;fill-opacity:1;fill-rule:nonzero;stroke:none;stroke-width:0.8"
       aria-label="5" />
    <path
       id="path44"
       d="M 207.6,184.8 V 53.6"
       style="fill:none;stroke:#262626;stroke-width:0.666666;stroke-linecap:square;stroke-linejoin:round;stroke-miterlimit:10;stroke-dasharray:none;stroke-opacity:1" />
    <path
       id="path46"
       d="m 207.6,184.8 h 1.312"
       style="fill:none;stroke:#262626;stroke-width:0.666666;stroke-linecap:square;stroke-linejoin:round;stroke-miterlimit:10;stroke-dasharray:none;stroke-opacity:1" />
    <path
       id="path47"
       d="m 207.6,141.06666 h 1.312"
       style="fill:none;stroke:#262626;stroke-width:0.666666;stroke-linecap:square;stroke-linejoin:round;stroke-miterlimit:10;stroke-dasharray:none;stroke-opacity:1" />
    <path
       id="path48"
       d="m 207.6,97.333331 h 1.312"
       style="fill:none;stroke:#262626;stroke-width:0.666666;stroke-linecap:square;stroke-linejoin:round;stroke-miterlimit:10;stroke-dasharray:none;stroke-opacity:1" />
    <path
       id="path58"
       d="m 207.6,171.13899 3.04,-23.65946 3.04001,-20.61128 3.03998,-17.74905 3.04001,-14.996141 3.04,-12.354217 3.04,-9.840876 3.04001,-7.48054 3.03998,-5.213945 3.04001,-3.077995 3.04,-1.101583 3.04,0.871538 3.04001,2.651392 3.03998,4.318087 3.04001,5.905754 3.04,7.37048 3.04,6.780607 3.04001,7.929251 3.03998,9.061456 3.04002,10.132162 3.03999,11.06024"
       style="fill:none;stroke:#000000;stroke-width:1.33334;stroke-linecap:butt;stroke-linejoin:round;stroke-miterlimit:10;stroke-dasharray:none;stroke-opacity:1" />
    <path
       id="path59"
       d="m 238,51.053903 v 8 m -4,-4 h 8 m -6.82843,-2.828427 5.65686,5.656854 m -5.65686,0 5.65686,-5.656854"
       style="fill:none;stroke:#000000;stroke-width:0.666666;stroke-linecap:butt;stroke-linejoin:miter;stroke-miterlimit:10;stroke-dasharray:none;stroke-opacity:1" />
    <path
       id="path60"
       d="m 290.8,184.8 h 60.8 V 53.6 h -60.8 z"
       style="fill:#ffffff;fill-opacity:1;fill-rule:nonzero;stroke:none;stroke-width:0.8" />
    <path
       id="path61"
       d="m 290.8,184.8 h 60.8"
       style="fill:none;stroke:#262626;stroke-width:0.666666;stroke-linecap:square;stroke-linejoin:round;stroke-miterlimit:10;stroke-dasharray:none;stroke-opacity:1" />
    <path
       id="path63"
       d="m 314.99592,184.8 v -1.31204"
       style="fill:none;stroke:#262626;stroke-width:0.666666;stroke-linecap:square;stroke-linejoin:round;stroke-miterlimit:10;stroke-dasharray:none;stroke-opacity:1" />
    <path
       id="path64"
       d="m 339.81223,184.8 v -1.31204"
       style="fill:none;stroke:#262626;stroke-width:0.666666;stroke-linecap:square;stroke-linejoin:round;stroke-miterlimit:10;stroke-dasharray:none;stroke-opacity:1" />
    <path
       id="path67"
       d="m 312.09765,201.80859 v 1.125 h -6.29687 c -0.0117,-0.28125 0.0352,-0.55078 0.14062,-0.8125 0.15625,-0.42578 0.41016,-0.84766 0.76563,-1.26563 0.35156,-0.41406 0.86328,-0.89843 1.53125,-1.45312 1.03906,-0.84375 1.74219,-1.51563 2.10937,-2.01563 0.36328,-0.5 0.54688,-0.96875 0.54688,-1.40625 0,-0.46875 -0.16797,-0.85937 -0.5,-1.17187 -0.33594,-0.32031 -0.76563,-0.48438 -1.29688,-0.48438 -0.57422,0 -1.03125,0.17188 -1.375,0.51563 -0.33593,0.33594 -0.5,0.79687 -0.5,1.39062 l -1.20312,-0.10937 c 0.082,-0.90625 0.39062,-1.59375 0.92187,-2.0625 0.53907,-0.46875 1.26563,-0.70313 2.17188,-0.70313 0.91406,0 1.64062,0.25782 2.17187,0.76563 0.53907,0.5 0.8125,1.125 0.8125,1.875 0,0.38672 -0.0781,0.76562 -0.23437,1.14062 -0.15625,0.36719 -0.41797,0.75 -0.78125,1.15625 -0.36719,0.40625 -0.96875,0.96485 -1.8125,1.67188 -0.69922,0.59375 -1.15235,1 -1.35938,1.21875 -0.19922,0.21094 -0.35937,0.41797 -0.48437,0.625 z m 1.91407,1.125 v -1.32813 h 1.34375 v 1.32813 z m 6.8164,0 v -2.28125 h -4.14062 v -1.07813 l 4.34375,-6.1875 H 322 v 6.1875 h 1.28125 v 1.07813 H 322 v 2.28125 z m 0,-3.35938 v -4.29687 l -2.98437,4.29687 z m 0,0"
       style="fill:#262626;fill-opacity:1;fill-rule:nonzero;stroke:none;stroke-width:0.8"
       aria-label="2.4" />
    <path
       id="path68"
       d="m 336.91406,201.80859 v 1.125 h -6.29687 c -0.0117,-0.28125 0.0351,-0.55078 0.14062,-0.8125 0.15625,-0.42578 0.41016,-0.84766 0.76563,-1.26563 0.35156,-0.41406 0.86328,-0.89843 1.53125,-1.45312 1.03906,-0.84375 1.74218,-1.51563 2.10937,-2.01563 0.36328,-0.5 0.54688,-0.96875 0.54688,-1.40625 0,-0.46875 -0.16797,-0.85937 -0.5,-1.17187 -0.33594,-0.32031 -0.76563,-0.48438 -1.29688,-0.48438 -0.57422,0 -1.03125,0.17188 -1.375,0.51563 -0.33594,0.33594 -0.5,0.79687 -0.5,1.39062 l -1.20312,-0.10937 c 0.082,-0.90625 0.39062,-1.59375 0.92187,-2.0625 0.53906,-0.46875 1.26563,-0.70313 2.17188,-0.70313 0.91406,0 1.64062,0.25782 2.17187,0.76563 0.53906,0.5 0.8125,1.125 0.8125,1.875 0,0.38672 -0.0781,0.76562 -0.23437,1.14062 -0.15625,0.36719 -0.41797,0.75 -0.78125,1.15625 -0.36719,0.40625 -0.96875,0.96485 -1.8125,1.67188 -0.69922,0.59375 -1.15235,1 -1.35938,1.21875 -0.19922,0.21094 -0.35937,0.41797 -0.48437,0.625 z m 1.91406,1.125 v -1.32813 h 1.34375 v 1.32813 z m 9.12891,-7.20313 -1.15625,0.0937 c -0.10547,-0.45703 -0.25,-0.78906 -0.4375,-1 -0.32422,-0.33203 -0.71484,-0.5 -1.17187,-0.5 -0.375,0 -0.70313,0.10547 -0.98438,0.3125 -0.375,0.26172 -0.67188,0.65235 -0.89062,1.17188 -0.21094,0.51172 -0.3125,1.24609 -0.3125,2.20312 0.28124,-0.42578 0.625,-0.74218 1.03124,-0.95312 0.40626,-0.20703 0.83204,-0.3125 1.28126,-0.3125 0.78124,0 1.4414,0.28906 1.98437,0.85937 0.55078,0.57422 0.82813,1.32032 0.82813,2.23438 0,0.59375 -0.13282,1.15234 -0.39063,1.67187 -0.25,0.51172 -0.60547,0.90235 -1.0625,1.17188 -0.44922,0.26953 -0.96094,0.40625 -1.53125,0.40625 -0.98047,0 -1.77734,-0.35156 -2.39062,-1.0625 -0.61719,-0.71875 -0.92188,-1.90625 -0.92188,-3.5625 0,-1.84375 0.33594,-3.17969 1.01562,-4.01563 0.60157,-0.72656 1.40626,-1.09375 2.40626,-1.09375 0.75,0 1.36328,0.21485 1.84374,0.64063 0.47657,0.41797 0.76563,0.99609 0.85938,1.73437 z m -4.78125,4.10938 c 0,0.40625 0.082,0.79687 0.25,1.17187 0.17578,0.36719 0.41406,0.64844 0.71875,0.84375 0.3125,0.1875 0.64062,0.28125 0.98438,0.28125 0.48828,0 0.91015,-0.19531 1.26562,-0.59375 0.36328,-0.40625 0.54688,-0.95312 0.54688,-1.64062 0,-0.65625 -0.17969,-1.17188 -0.53126,-1.54688 -0.35546,-0.38281 -0.79687,-0.57812 -1.32812,-0.57812 -0.53125,0 -0.98438,0.19531 -1.35938,0.57812 -0.36718,0.375 -0.54687,0.8711 -0.54687,1.48438 z m 0,0"
       style="fill:#262626;fill-opacity:1;fill-rule:nonzero;stroke:none;stroke-width:0.8"
       aria-label="2.6" />
    <path
       id="path69"
       d="M 290.8,184.8 V 53.6"
       style="fill:none;stroke:#262626;stroke-width:0.666666;stroke-linecap:square;stroke-linejoin:round;stroke-miterlimit:10;stroke-dasharray:none;stroke-opacity:1" />
    <path
       id="path71"
       d="m 290.8,184.8 h 1.31198"
       style="fill:none;stroke:#262626;stroke-width:0.666666;stroke-linecap:square;stroke-linejoin:round;stroke-miterlimit:10;stroke-dasharray:none;stroke-opacity:1" />
    <path
       id="path72"
       d="m 290.8,141.06667 h 1.31198"
       style="fill:none;stroke:#262626;stroke-width:0.666666;stroke-linecap:square;stroke-linejoin:round;stroke-miterlimit:10;stroke-dasharray:none;stroke-opacity:1" />
    <path
       id="path73"
       d="m 290.8,97.333331 h 1.31198"
       style="fill:none;stroke:#262626;stroke-width:0.666666;stroke-linecap:square;stroke-linejoin:round;stroke-miterlimit:10;stroke-dasharray:none;stroke-opacity:1" />
    <path
       id="path83"
       d="m 290.8,66.297055 3.04002,-1.601064 3.03999,-1.516729 3.04001,-1.493207 3.03996,-1.329297 3.04004,-1.215352 3.03997,-1.107915 3.03999,-0.940167 3.04001,-0.821551 3.03999,-0.693677 3.04002,-0.524178 3.03999,-0.299292 3.04002,-0.15023 3.03998,0.04296 3.04002,0.27143 3.03999,0.486641 3.03999,0.753235 3.04002,1.041935 3.03998,1.309693 3.04002,1.606984 3.03999,1.95958"
       style="fill:none;stroke:#000000;stroke-width:1.33334;stroke-linecap:butt;stroke-linejoin:round;stroke-miterlimit:10;stroke-dasharray:none;stroke-opacity:1" />
    <path
       id="path84"
       d="m 321.2,51.053918 v 8 m -4,-4 h 8 m -6.82843,-2.828427 5.65686,5.656854 m -5.65686,0 5.65686,-5.656854"
       style="fill:none;stroke:#000000;stroke-width:0.666666;stroke-linecap:butt;stroke-linejoin:miter;stroke-miterlimit:10;stroke-dasharray:none;stroke-opacity:1" />
    <path
       id="path85"
       d="m 376,184.8 h 61.6 V 53.6 H 376 Z"
       style="fill:#ffffff;fill-opacity:1;fill-rule:nonzero;stroke:none;stroke-width:0.8" />
    <path
       id="path86"
       d="m 376,184.8 h 61.6"
       style="fill:none;stroke:#262626;stroke-width:0.666666;stroke-linecap:square;stroke-linejoin:round;stroke-miterlimit:10;stroke-dasharray:none;stroke-opacity:1" />
    <path
       id="path88"
       d="m 399.65598,184.8 v -1.31204"
       style="fill:none;stroke:#262626;stroke-width:0.666666;stroke-linecap:square;stroke-linejoin:round;stroke-miterlimit:10;stroke-dasharray:none;stroke-opacity:1" />
    <path
       id="path88-1"
       d="m 437.6,184.8 v -1.31204"
       style="fill:none;stroke:#262626;stroke-width:0.666666;stroke-linecap:square;stroke-linejoin:round;stroke-miterlimit:10;stroke-dasharray:none;stroke-opacity:1" />
    <path
       id="path92"
       d="m 393.02344,202.93359 h -1.17188 v -7.46875 c -0.28125,0.27344 -0.65234,0.54297 -1.10937,0.8125 -0.46094,0.27344 -0.8711,0.47656 -1.23438,0.60937 v -1.14062 c 0.65625,-0.30078 1.22656,-0.67188 1.71875,-1.10938 0.48828,-0.44531 0.83203,-0.875 1.03125,-1.28125 h 0.76563 z m 9.07031,-7.20313 -1.15625,0.0937 c -0.10547,-0.45703 -0.25,-0.78906 -0.4375,-1 -0.32422,-0.33203 -0.71484,-0.5 -1.17188,-0.5 -0.375,0 -0.70312,0.10547 -0.98437,0.3125 -0.375,0.26172 -0.67188,0.65235 -0.89063,1.17188 -0.21093,0.51172 -0.3125,1.24609 -0.3125,2.20312 0.28125,-0.42578 0.625,-0.74218 1.03125,-0.95312 0.40625,-0.20703 0.83203,-0.3125 1.28125,-0.3125 0.78125,0 1.44141,0.28906 1.98438,0.85937 0.55078,0.57422 0.82812,1.32032 0.82812,2.23438 0,0.59375 -0.13281,1.15234 -0.39062,1.67187 -0.25,0.51172 -0.60547,0.90235 -1.0625,1.17188 -0.44922,0.26953 -0.96094,0.40625 -1.53125,0.40625 -0.98047,0 -1.77735,-0.35156 -2.39063,-1.0625 -0.61718,-0.71875 -0.92187,-1.90625 -0.92187,-3.5625 0,-1.84375 0.33594,-3.17969 1.01562,-4.01563 0.60157,-0.72656 1.40625,-1.09375 2.40625,-1.09375 0.75,0 1.36328,0.21485 1.84375,0.64063 0.47657,0.41797 0.76563,0.99609 0.85938,1.73437 z m -4.78125,4.10938 c 0,0.40625 0.082,0.79687 0.25,1.17187 0.17578,0.36719 0.41406,0.64844 0.71875,0.84375 0.3125,0.1875 0.64062,0.28125 0.98437,0.28125 0.48828,0 0.91016,-0.19531 1.26563,-0.59375 0.36328,-0.40625 0.54687,-0.95312 0.54687,-1.64062 0,-0.65625 -0.17968,-1.17188 -0.53125,-1.54688 -0.35547,-0.38281 -0.79687,-0.57812 -1.32812,-0.57812 -0.53125,0 -0.98438,0.19531 -1.35938,0.57812 -0.36718,0.375 -0.54687,0.8711 -0.54687,1.48438 z m 6.11719,-1.60938 c 0,-1.125 0.11328,-2.03125 0.34375,-2.71875 0.23828,-0.6875 0.58593,-1.21875 1.04687,-1.59375 0.45703,-0.375 1.03125,-0.5625 1.71875,-0.5625 0.51953,0 0.97266,0.10547 1.35938,0.3125 0.38281,0.19922 0.70312,0.4961 0.95312,0.89063 0.25,0.38672 0.44531,0.85937 0.59375,1.42187 0.14453,0.55469 0.21875,1.30469 0.21875,2.25 0,1.11719 -0.12109,2.01563 -0.35937,2.70313 -0.23047,0.6875 -0.57422,1.21875 -1.03125,1.59375 -0.44922,0.375 -1.02735,0.5625 -1.73438,0.5625 -0.91797,0 -1.63672,-0.32813 -2.15625,-0.98438 -0.63672,-0.78906 -0.95312,-2.08203 -0.95312,-3.875 z m 1.20312,0 c 0,1.5625 0.17969,2.60547 0.54688,3.125 0.375,0.52344 0.82812,0.78125 1.35937,0.78125 0.53906,0 0.99219,-0.25781 1.35938,-0.78125 0.375,-0.51953 0.5625,-1.5625 0.5625,-3.125 0,-1.57031 -0.1875,-2.61328 -0.5625,-3.125 -0.36719,-0.51953 -0.82032,-0.78125 -1.35938,-0.78125 -0.54297,0 -0.97656,0.23047 -1.29687,0.6875 -0.40625,0.58594 -0.60938,1.65625 -0.60938,3.21875 z m 0,0"
       style="fill:#262626;fill-opacity:1;fill-rule:nonzero;stroke:none;stroke-width:0.8"
       aria-label="160" />
    <path
       id="path93"
       d="m 430.90234,202.93359 h -1.17187 v -7.46875 c -0.28125,0.27344 -0.65235,0.54297 -1.10938,0.8125 -0.46093,0.27344 -0.87109,0.47656 -1.23437,0.60937 v -1.14062 c 0.65625,-0.30078 1.22656,-0.67188 1.71875,-1.10938 0.48828,-0.44531 0.83203,-0.875 1.03125,-1.28125 h 0.76562 z m 4.80078,-5.17188 c -0.49218,-0.17578 -0.85546,-0.42968 -1.09374,-0.76562 -0.23047,-0.33203 -0.34376,-0.72656 -0.34376,-1.1875 0,-0.6875 0.25,-1.26563 0.75,-1.73438 0.5,-0.47656 1.16016,-0.71875 1.98438,-0.71875 0.83203,0 1.50391,0.2461 2.01562,0.73438 0.50782,0.48047 0.76563,1.0625 0.76563,1.75 0,0.44922 -0.12109,0.83984 -0.35937,1.17187 -0.23047,0.32422 -0.57813,0.57422 -1.04688,0.75 0.58203,0.1875 1.02344,0.4961 1.32812,0.92188 0.3125,0.42969 0.46876,0.93359 0.46876,1.51562 0,0.82422 -0.29297,1.51172 -0.875,2.0625 -0.57422,0.55469 -1.32813,0.82813 -2.26563,0.82813 -0.94922,0 -1.71094,-0.27344 -2.28125,-0.82813 -0.57422,-0.5625 -0.85938,-1.25781 -0.85938,-2.09375 0,-0.61328 0.15626,-1.1289 0.46876,-1.54687 0.3125,-0.42578 0.75781,-0.71094 1.34374,-0.85938 z m -0.23437,-1.98437 c 0,0.44922 0.14453,0.82031 0.4375,1.10937 0.28906,0.28125 0.66406,0.42188 1.125,0.42188 0.44531,0 0.81641,-0.14063 1.10937,-0.42188 0.28907,-0.28125 0.4375,-0.6289 0.4375,-1.04687 0,-0.42578 -0.15234,-0.78516 -0.45312,-1.07813 -0.29297,-0.28906 -0.66406,-0.4375 -1.10938,-0.4375 -0.44921,0 -0.82031,0.14844 -1.10937,0.4375 -0.29297,0.28125 -0.4375,0.6211 -0.4375,1.01563 z m -0.375,4.40625 c 0,0.33594 0.0781,0.65625 0.23437,0.96875 0.15626,0.3125 0.39063,0.55859 0.70313,0.73437 0.3125,0.16797 0.64844,0.25 1.01563,0.25 0.55078,0 1.00781,-0.17578 1.375,-0.53125 0.36328,-0.36328 0.54687,-0.82812 0.54687,-1.39062 0,-0.5625 -0.1875,-1.02344 -0.5625,-1.39063 -0.375,-0.375 -0.84375,-0.5625 -1.40625,-0.5625 -0.55469,0 -1.01172,0.1836 -1.375,0.54688 -0.35547,0.36719 -0.53125,0.82422 -0.53125,1.375 z m 6.21094,-1.95313 c 0,-1.125 0.11328,-2.03125 0.34375,-2.71875 0.23828,-0.6875 0.58594,-1.21875 1.04687,-1.59375 0.45703,-0.375 1.03125,-0.5625 1.71875,-0.5625 0.51953,0 0.97266,0.10547 1.35938,0.3125 0.38281,0.19922 0.70312,0.4961 0.95312,0.89063 0.25,0.38672 0.44532,0.85937 0.59375,1.42187 0.14453,0.55469 0.21875,1.30469 0.21875,2.25 0,1.11719 -0.12109,2.01563 -0.35937,2.70313 -0.23047,0.6875 -0.57422,1.21875 -1.03125,1.59375 -0.44922,0.375 -1.02735,0.5625 -1.73438,0.5625 -0.91797,0 -1.63672,-0.32813 -2.15625,-0.98438 -0.63672,-0.78906 -0.95312,-2.08203 -0.95312,-3.875 z m 1.20312,0 c 0,1.5625 0.17969,2.60547 0.54688,3.125 0.375,0.52344 0.82812,0.78125 1.35937,0.78125 0.53906,0 0.99219,-0.25781 1.35938,-0.78125 0.375,-0.51953 0.5625,-1.5625 0.5625,-3.125 0,-1.57031 -0.1875,-2.61328 -0.5625,-3.125 -0.36719,-0.51953 -0.82032,-0.78125 -1.35938,-0.78125 -0.54297,0 -0.97656,0.23047 -1.29687,0.6875 -0.40625,0.58594 -0.60938,1.65625 -0.60938,3.21875 z m 0,0"
       style="fill:#262626;fill-opacity:1;fill-rule:nonzero;stroke:none;stroke-width:0.8"
       aria-label="180" />
    <path
       id="path94"
       d="M 376,184.8 V 53.6"
       style="fill:none;stroke:#262626;stroke-width:0.666666;stroke-linecap:square;stroke-linejoin:round;stroke-miterlimit:10;stroke-dasharray:none;stroke-opacity:1" />
    <path
       id="path96"
       d="m 376,184.8 h 1.31198"
       style="fill:none;stroke:#262626;stroke-width:0.666666;stroke-linecap:square;stroke-linejoin:round;stroke-miterlimit:10;stroke-dasharray:none;stroke-opacity:1" />
    <path
       id="path97"
       d="m 376,141.06667 h 1.31198"
       style="fill:none;stroke:#262626;stroke-width:0.666666;stroke-linecap:square;stroke-linejoin:round;stroke-miterlimit:10;stroke-dasharray:none;stroke-opacity:1" />
    <path
       id="path98"
       d="m 376,97.333331 h 1.31198"
       style="fill:none;stroke:#262626;stroke-width:0.666666;stroke-linecap:square;stroke-linejoin:round;stroke-miterlimit:10;stroke-dasharray:none;stroke-opacity:1" />
    <path
       id="path108"
       d="m 375.99822,184.81564 2.70996,-23.84055 3.09956,-23.79596 3.09956,-20.38081 3.09961,-17.259666 3.09956,-14.180252 3.09956,-11.258234 3.09956,-8.530657 3.09959,-5.905679 3.09956,-3.445444 3.09956,-1.16447 3.09956,1.097071 3.09958,3.132722 3.09958,5.041837 3.09956,6.839338 3.0996,7.91005 3.09956,7.976282 3.09958,9.218496 3.09956,10.513006 3.09956,11.66546 3.09956,12.73885"
       style="fill:none;stroke:#000000;stroke-width:1.33334;stroke-linecap:butt;stroke-linejoin:round;stroke-miterlimit:10;stroke-dasharray:none;stroke-opacity:1" />
    <path
       id="path109"
       d="m 406.6043,51.053918 v 8 m -4,-4 h 8 m -6.82843,-2.828427 5.65686,5.656854 m -5.65686,0 5.65686,-5.656854"
       style="fill:none;stroke:#000000;stroke-width:0.666666;stroke-linecap:butt;stroke-linejoin:miter;stroke-miterlimit:10;stroke-dasharray:none;stroke-opacity:1" />
    <path
       id="path110"
       d="m 463.2,184.8 h 61.6 V 53.6 h -61.6 z"
       style="fill:#ffffff;fill-opacity:1;fill-rule:nonzero;stroke:none;stroke-width:0.8" />
    <path
       id="path111"
       d="m 463.2,184.8 h 61.6"
       style="fill:none;stroke:#262626;stroke-width:0.666666;stroke-linecap:square;stroke-linejoin:round;stroke-miterlimit:10;stroke-dasharray:none;stroke-opacity:1" />
    <path
       id="path113"
       d="m 463.2,184.8 v -1.31204"
       style="fill:none;stroke:#262626;stroke-width:0.666666;stroke-linecap:square;stroke-linejoin:round;stroke-miterlimit:10;stroke-dasharray:none;stroke-opacity:1" />
    <path
       id="path114"
       d="m 494,184.8 v -1.31204"
       style="fill:none;stroke:#262626;stroke-width:0.666666;stroke-linecap:square;stroke-linejoin:round;stroke-miterlimit:10;stroke-dasharray:none;stroke-opacity:1" />
    <path
       id="path114-0"
       d="m 524.8,184.8 v -1.31204"
       style="fill:none;stroke:#262626;stroke-width:0.666666;stroke-linecap:square;stroke-linejoin:round;stroke-miterlimit:10;stroke-dasharray:none;stroke-opacity:1" />
    <path
       id="path119"
       d="m 459.93359,200.73046 1.125,-0.10937 c 0.0937,0.53125 0.27344,0.91797 0.54688,1.15625 0.26953,0.24219 0.61328,0.35937 1.03125,0.35937 0.35156,0 0.66406,-0.082 0.9375,-0.25 0.28125,-0.16406 0.50391,-0.38281 0.67187,-0.65625 0.17579,-0.28125 0.32032,-0.65625 0.4375,-1.125 0.11329,-0.46875 0.17188,-0.9414 0.17188,-1.42187 0,-0.0508 0,-0.12891 0,-0.23438 -0.24219,0.36719 -0.5625,0.66797 -0.96875,0.90625 -0.39844,0.23047 -0.83594,0.34375 -1.3125,0.34375 -0.79297,0 -1.46484,-0.28515 -2.01563,-0.85937 -0.54296,-0.57031 -0.8125,-1.32813 -0.8125,-2.26563 0,-0.96875 0.28516,-1.74218 0.85938,-2.32812 0.57031,-0.59375 1.28516,-0.89063 2.14062,-0.89063 0.625,0 1.19141,0.16797 1.70313,0.5 0.51953,0.33594 0.91016,0.8125 1.17187,1.4375 0.26954,0.61719 0.40625,1.50782 0.40625,2.67188 0,1.21875 -0.13671,2.19531 -0.40625,2.92187 -0.26171,0.71875 -0.65234,1.26563 -1.17187,1.64063 -0.52344,0.375 -1.13672,0.5625 -1.84375,0.5625 -0.74219,0 -1.35156,-0.20313 -1.82813,-0.60938 -0.46875,-0.41406 -0.75,-1 -0.84375,-1.75 z m 4.79688,-4.21875 c 0,-0.66406 -0.18359,-1.19531 -0.54688,-1.59375 -0.35546,-0.39453 -0.78125,-0.59375 -1.28125,-0.59375 -0.52343,0 -0.98046,0.21485 -1.375,0.64063 -0.38671,0.42969 -0.57812,0.98047 -0.57812,1.65625 0,0.60547 0.17969,1.10156 0.54687,1.48437 0.375,0.375 0.82813,0.5625 1.35938,0.5625 0.55078,0 1,-0.1875 1.34375,-0.5625 0.35156,-0.38281 0.53125,-0.91406 0.53125,-1.59375 z m 0,0"
       style="fill:#262626;fill-opacity:1;fill-rule:nonzero;stroke:none;stroke-width:0.8"
       aria-label="9" />
    <path
       id="path120"
       d="m 491.36719,202.93359 h -1.17188 v -7.46875 c -0.28125,0.27344 -0.65234,0.54297 -1.10937,0.8125 -0.46094,0.27344 -0.8711,0.47656 -1.23438,0.60937 v -1.14062 c 0.65625,-0.30078 1.22657,-0.67188 1.71875,-1.10938 0.48828,-0.44531 0.83203,-0.875 1.03125,-1.28125 h 0.76563 z m 2.99219,-4.70313 c 0,-1.125 0.11328,-2.03125 0.34374,-2.71875 0.23829,-0.6875 0.58594,-1.21875 1.04688,-1.59375 0.45703,-0.375 1.03125,-0.5625 1.71875,-0.5625 0.51953,0 0.97266,0.10547 1.35937,0.3125 0.38282,0.19922 0.70313,0.4961 0.95313,0.89063 0.25,0.38672 0.44531,0.85937 0.59375,1.42187 0.14453,0.55469 0.21875,1.30469 0.21875,2.25 0,1.11719 -0.12109,2.01563 -0.35937,2.70313 -0.23047,0.6875 -0.57422,1.21875 -1.03126,1.59375 -0.44921,0.375 -1.02734,0.5625 -1.73437,0.5625 -0.91797,0 -1.63672,-0.32813 -2.15625,-0.98438 -0.63672,-0.78906 -0.95312,-2.08203 -0.95312,-3.875 z m 1.20312,0 c 0,1.5625 0.17969,2.60547 0.54688,3.125 0.375,0.52344 0.82812,0.78125 1.35937,0.78125 0.53906,0 0.99219,-0.25781 1.35937,-0.78125 0.375,-0.51953 0.5625,-1.5625 0.5625,-3.125 0,-1.57031 -0.1875,-2.61328 -0.5625,-3.125 -0.36718,-0.51953 -0.82031,-0.78125 -1.35937,-0.78125 -0.54297,0 -0.97656,0.23047 -1.29687,0.6875 -0.40626,0.58594 -0.60938,1.65625 -0.60938,3.21875 z m 0,0"
       style="fill:#262626;fill-opacity:1;fill-rule:nonzero;stroke:none;stroke-width:0.8"
       aria-label="10" />
    <path
       id="path121"
       d="m 522.16797,202.93359 h -1.17188 v -7.46875 c -0.28125,0.27344 -0.65234,0.54297 -1.10937,0.8125 -0.46094,0.27344 -0.87109,0.47656 -1.23438,0.60937 v -1.14062 c 0.65625,-0.30078 1.22657,-0.67188 1.71875,-1.10938 0.48829,-0.44531 0.83204,-0.875 1.03125,-1.28125 h 0.76563 z m 7.41406,0 h -1.17187 v -7.46875 c -0.28125,0.27344 -0.65235,0.54297 -1.10938,0.8125 -0.46094,0.27344 -0.87109,0.47656 -1.23437,0.60937 v -1.14062 c 0.65625,-0.30078 1.22656,-0.67188 1.71875,-1.10938 0.48828,-0.44531 0.83203,-0.875 1.03125,-1.28125 h 0.76562 z m 0,0"
       style="fill:#262626;fill-opacity:1;fill-rule:nonzero;stroke:none;stroke-width:0.8"
       aria-label="11" />
    <path
       id="path122"
       d="M 463.2,184.8 V 53.6"
       style="fill:none;stroke:#262626;stroke-width:0.666666;stroke-linecap:square;stroke-linejoin:round;stroke-miterlimit:10;stroke-dasharray:none;stroke-opacity:1" />
    <path
       id="path124"
       d="m 463.2,184.8 h 1.31201"
       style="fill:none;stroke:#262626;stroke-width:0.666666;stroke-linecap:square;stroke-linejoin:round;stroke-miterlimit:10;stroke-dasharray:none;stroke-opacity:1" />
    <path
       id="path125"
       d="m 463.2,141.06667 h 1.31201"
       style="fill:none;stroke:#262626;stroke-width:0.666666;stroke-linecap:square;stroke-linejoin:round;stroke-miterlimit:10;stroke-dasharray:none;stroke-opacity:1" />
    <path
       id="path126"
       d="m 463.2,97.333331 h 1.31201"
       style="fill:none;stroke:#262626;stroke-width:0.666666;stroke-linecap:square;stroke-linejoin:round;stroke-miterlimit:10;stroke-dasharray:none;stroke-opacity:1" />
    <path
       id="path136"
       d="m 463.2,106.94263 3.08003,-9.058591 3.07998,-8.106994 3.07998,-7.086747 3.07998,-6.049652 3.08003,-6.343356 3.08003,-5.529395 3.07998,-4.296525 3.07998,-3.07475 3.07998,-1.823779 3.08003,-0.518923 3.08003,0.798529 3.07998,2.062597 3.07998,3.410243 3.07998,4.711847 3.08003,6.045316 3.08003,7.41982 3.07998,8.713084 3.07998,10.131888 3.07998,11.461848 3.08003,12.79689"
       style="fill:none;stroke:#000000;stroke-width:1.33334;stroke-linecap:butt;stroke-linejoin:round;stroke-miterlimit:10;stroke-dasharray:none;stroke-opacity:1" />
    <path
       id="path137"
       d="m 494,51.053918 v 8 m -4,-4 h 8 m -6.82843,-2.828427 5.65686,5.656854 m -5.65686,0 5.65686,-5.656854"
       style="fill:none;stroke:#000000;stroke-width:0.666666;stroke-linecap:butt;stroke-linejoin:miter;stroke-miterlimit:10;stroke-dasharray:none;stroke-opacity:1" />
    <path
       id="path138"
       d="M 553.2,184.8 H 614 V 53.6 h -60.8 z"
       style="fill:#ffffff;fill-opacity:1;fill-rule:nonzero;stroke:none;stroke-width:0.8" />
    <path
       id="path139"
       d="M 553.2,184.8 H 614"
       style="fill:none;stroke:#262626;stroke-width:0.666666;stroke-linecap:square;stroke-linejoin:round;stroke-miterlimit:10;stroke-dasharray:none;stroke-opacity:1" />
    <path
       id="path141"
       d="m 557.60298,184.8 v -1.312"
       style="fill:none;stroke:#262626;stroke-width:0.666666;stroke-linecap:square;stroke-linejoin:round;stroke-miterlimit:10;stroke-dasharray:none;stroke-opacity:1" />
    <path
       id="path142"
       d="m 582.87598,184.8 v -1.312"
       style="fill:none;stroke:#262626;stroke-width:0.666666;stroke-linecap:square;stroke-linejoin:round;stroke-miterlimit:10;stroke-dasharray:none;stroke-opacity:1" />
    <path
       id="path143"
       d="m 608.14898,184.8 v -1.312"
       style="fill:none;stroke:#262626;stroke-width:0.666666;stroke-linecap:square;stroke-linejoin:round;stroke-miterlimit:10;stroke-dasharray:none;stroke-opacity:1" />
    <path
       id="path147"
       d="m 554.70703,201.8086 v 1.125 h -6.29687 c -0.0117,-0.28125 0.0351,-0.55078 0.14062,-0.8125 0.15625,-0.42578 0.41016,-0.84766 0.76563,-1.26563 0.35156,-0.41406 0.86328,-0.89844 1.53125,-1.45312 1.03906,-0.84375 1.74219,-1.51563 2.10937,-2.01563 0.36328,-0.5 0.54688,-0.96875 0.54688,-1.40625 0,-0.46875 -0.16797,-0.85937 -0.5,-1.17187 -0.33594,-0.32032 -0.76563,-0.48438 -1.29688,-0.48438 -0.57422,0 -1.03125,0.17188 -1.375,0.51563 -0.33593,0.33593 -0.5,0.79687 -0.5,1.39062 l -1.20312,-0.10937 c 0.082,-0.90625 0.39062,-1.59375 0.92187,-2.0625 0.53907,-0.46875 1.26563,-0.70313 2.17188,-0.70313 0.91406,0 1.64062,0.25781 2.17187,0.76563 0.53907,0.5 0.8125,1.125 0.8125,1.875 0,0.38672 -0.0781,0.76562 -0.23437,1.14062 -0.15625,0.36719 -0.41797,0.75 -0.78125,1.15625 -0.36719,0.40625 -0.96875,0.96485 -1.8125,1.67188 -0.69922,0.59375 -1.15235,1 -1.35938,1.21875 -0.19922,0.21093 -0.35937,0.41797 -0.48437,0.625 z m 1.91407,1.125 v -1.32813 h 1.34375 v 1.32813 z m 9.20703,-1.125 v 1.125 h -6.29688 c -0.0117,-0.28125 0.0352,-0.55078 0.14063,-0.8125 0.15625,-0.42578 0.41015,-0.84766 0.76562,-1.26563 0.35156,-0.41406 0.86328,-0.89844 1.53125,-1.45312 1.03906,-0.84375 1.74219,-1.51563 2.10938,-2.01563 0.36328,-0.5 0.54687,-0.96875 0.54687,-1.40625 0,-0.46875 -0.16797,-0.85937 -0.5,-1.17187 -0.33594,-0.32032 -0.76562,-0.48438 -1.29687,-0.48438 -0.57422,0 -1.03125,0.17188 -1.375,0.51563 -0.33594,0.33593 -0.5,0.79687 -0.5,1.39062 L 559.75,196.1211 c 0.082,-0.90625 0.39063,-1.59375 0.92188,-2.0625 0.53906,-0.46875 1.26562,-0.70313 2.17187,-0.70313 0.91406,0 1.64063,0.25781 2.17188,0.76563 0.53906,0.5 0.8125,1.125 0.8125,1.875 0,0.38672 -0.0781,0.76562 -0.23438,1.14062 -0.15625,0.36719 -0.41797,0.75 -0.78125,1.15625 -0.36719,0.40625 -0.96875,0.96485 -1.8125,1.67188 -0.69922,0.59375 -1.15234,1 -1.35937,1.21875 -0.19922,0.21093 -0.35938,0.41797 -0.48438,0.625 z m 0,0"
       style="fill:#262626;fill-opacity:1;fill-rule:nonzero;stroke:none;stroke-width:0.8"
       aria-label="2.2" />
    <path
       id="path148"
       d="m 579.98047,201.8086 v 1.125 h -6.29687 c -0.0117,-0.28125 0.0352,-0.55078 0.14062,-0.8125 0.15625,-0.42578 0.41016,-0.84766 0.76563,-1.26563 0.35156,-0.41406 0.86328,-0.89844 1.53125,-1.45312 1.03906,-0.84375 1.74218,-1.51563 2.10937,-2.01563 0.36328,-0.5 0.54688,-0.96875 0.54688,-1.40625 0,-0.46875 -0.16797,-0.85937 -0.5,-1.17187 -0.33594,-0.32032 -0.76563,-0.48438 -1.29688,-0.48438 -0.57422,0 -1.03125,0.17188 -1.375,0.51563 -0.33594,0.33593 -0.5,0.79687 -0.5,1.39062 l -1.20312,-0.10937 c 0.082,-0.90625 0.39062,-1.59375 0.92187,-2.0625 0.53906,-0.46875 1.26563,-0.70313 2.17188,-0.70313 0.91406,0 1.64062,0.25781 2.17187,0.76563 0.53906,0.5 0.8125,1.125 0.8125,1.875 0,0.38672 -0.0781,0.76562 -0.23437,1.14062 -0.15625,0.36719 -0.41797,0.75 -0.78125,1.15625 -0.36719,0.40625 -0.96875,0.96485 -1.8125,1.67188 -0.69922,0.59375 -1.15235,1 -1.35938,1.21875 -0.19922,0.21093 -0.35937,0.41797 -0.48437,0.625 z m 1.91406,1.125 v -1.32813 h 1.34375 v 1.32813 z m 6.8125,0 v -2.28125 h -4.14062 v -1.07813 l 4.34375,-6.1875 h 0.96875 v 6.1875 h 1.28125 v 1.07813 h -1.28125 v 2.28125 z m 0,-3.35938 v -4.29687 l -2.98437,4.29687 z m 0,0"
       style="fill:#262626;fill-opacity:1;fill-rule:nonzero;stroke:none;stroke-width:0.8"
       aria-label="2.4" />
    <path
       id="path149"
       d="m 605.2539,201.8086 v 1.125 h -6.29687 c -0.0117,-0.28125 0.0351,-0.55078 0.14062,-0.8125 0.15625,-0.42578 0.41016,-0.84766 0.76563,-1.26563 0.35156,-0.41406 0.86328,-0.89844 1.53125,-1.45312 1.03906,-0.84375 1.74218,-1.51563 2.10937,-2.01563 0.36328,-0.5 0.54688,-0.96875 0.54688,-1.40625 0,-0.46875 -0.16797,-0.85937 -0.5,-1.17187 -0.33594,-0.32032 -0.76563,-0.48438 -1.29688,-0.48438 -0.57422,0 -1.03125,0.17188 -1.375,0.51563 -0.33594,0.33593 -0.5,0.79687 -0.5,1.39062 l -1.20312,-0.10937 c 0.082,-0.90625 0.39062,-1.59375 0.92187,-2.0625 0.53906,-0.46875 1.26563,-0.70313 2.17188,-0.70313 0.91406,0 1.64062,0.25781 2.17187,0.76563 0.53906,0.5 0.8125,1.125 0.8125,1.875 0,0.38672 -0.0781,0.76562 -0.23437,1.14062 -0.15625,0.36719 -0.41797,0.75 -0.78125,1.15625 -0.36719,0.40625 -0.96875,0.96485 -1.8125,1.67188 -0.69922,0.59375 -1.15235,1 -1.35938,1.21875 -0.19922,0.21093 -0.35937,0.41797 -0.48437,0.625 z m 1.91016,1.125 v -1.32813 h 1.34375 v 1.32813 z m 9.1289,-7.20313 -1.15625,0.0937 c -0.10546,-0.45703 -0.25,-0.78906 -0.4375,-1 -0.32421,-0.33203 -0.71484,-0.5 -1.17187,-0.5 -0.375,0 -0.70313,0.10547 -0.98438,0.3125 -0.375,0.26172 -0.67187,0.65235 -0.89062,1.17188 -0.21094,0.51172 -0.3125,1.24609 -0.3125,2.20312 0.28125,-0.42578 0.625,-0.74219 1.03125,-0.95312 0.40625,-0.20703 0.83203,-0.3125 1.28125,-0.3125 0.78125,0 1.44141,0.28906 1.98437,0.85937 0.55079,0.57422 0.82813,1.32031 0.82813,2.23438 0,0.59375 -0.13281,1.15234 -0.39063,1.67187 -0.25,0.51172 -0.60546,0.90235 -1.0625,1.17188 -0.44921,0.26953 -0.96093,0.40625 -1.53125,0.40625 -0.98046,0 -1.77734,-0.35157 -2.39062,-1.0625 -0.61719,-0.71875 -0.92188,-1.90625 -0.92188,-3.5625 0,-1.84375 0.33594,-3.17969 1.01563,-4.01563 0.60156,-0.72656 1.40625,-1.09375 2.40625,-1.09375 0.75,0 1.36328,0.21485 1.84375,0.64063 0.47656,0.41796 0.76562,0.99609 0.85937,1.73437 z m -4.78125,4.10938 c 0,0.40625 0.082,0.79687 0.25,1.17187 0.17579,0.36719 0.41407,0.64844 0.71875,0.84375 0.3125,0.1875 0.64063,0.28125 0.98438,0.28125 0.48828,0 0.91016,-0.19531 1.26562,-0.59375 0.36329,-0.40625 0.54688,-0.95312 0.54688,-1.64062 0,-0.65625 -0.17969,-1.17188 -0.53125,-1.54688 -0.35547,-0.38281 -0.79688,-0.57812 -1.32813,-0.57812 -0.53125,0 -0.98437,0.19531 -1.35937,0.57812 -0.36719,0.375 -0.54688,0.8711 -0.54688,1.48438 z m 0,0"
       style="fill:#262626;fill-opacity:1;fill-rule:nonzero;stroke:none;stroke-width:0.8"
       aria-label="2.6" />
    <path
       id="path153"
       d="M 553.2,184.8 V 53.6"
       style="fill:none;stroke:#262626;stroke-width:0.666666;stroke-linecap:square;stroke-linejoin:round;stroke-miterlimit:10;stroke-dasharray:none;stroke-opacity:1" />
    <path
       id="path155"
       d="m 553.2,184.8 h 1.31201"
       style="fill:none;stroke:#262626;stroke-width:0.666666;stroke-linecap:square;stroke-linejoin:round;stroke-miterlimit:10;stroke-dasharray:none;stroke-opacity:1" />
    <path
       id="path156"
       d="m 553.2,141.06666 h 1.31201"
       style="fill:none;stroke:#262626;stroke-width:0.666666;stroke-linecap:square;stroke-linejoin:round;stroke-miterlimit:10;stroke-dasharray:none;stroke-opacity:1" />
    <path
       id="path157"
       d="m 553.2,97.333331 h 1.31201"
       style="fill:none;stroke:#262626;stroke-width:0.666666;stroke-linecap:square;stroke-linejoin:round;stroke-miterlimit:10;stroke-dasharray:none;stroke-opacity:1" />
    <path
       id="path167"
       d="m 553.2,56.112186 3.03999,-0.2047 3.03999,-0.181076 3.04004,-0.179784 3.03999,-0.134506 3.03999,-0.112009 3.03999,-0.09292 3.03999,-0.06798 3.04004,-0.0478 3.03999,-0.02823 3.03999,-0.0093 3.03999,0.0091 3.03999,0.02693 3.04004,0.04422 3.03999,0.06101 3.03999,0.07734 3.03999,0.09325 3.03999,0.123863 3.04004,0.125725 3.03999,0.141013 L 614,55.909206"
       style="fill:none;stroke:#000000;stroke-width:1.33334;stroke-linecap:butt;stroke-linejoin:round;stroke-miterlimit:10;stroke-dasharray:none;stroke-opacity:1" />
    <path
       id="path168"
       d="m 583.6,51.053903 v 8 m -4,-4 h 8 m -6.82843,-2.828427 5.65686,5.656854 m -5.65686,0 5.65686,-5.656854"
       style="fill:none;stroke:#000000;stroke-width:0.666666;stroke-linecap:butt;stroke-linejoin:miter;stroke-miterlimit:10;stroke-dasharray:none;stroke-opacity:1" />
    <path
       id="path169"
       d="m 642.4,184.8 h 60.8 V 53.6 h -60.8 z"
       style="fill:#ffffff;fill-opacity:1;fill-rule:nonzero;stroke:none;stroke-width:0.8" />
    <path
       id="path170"
       d="m 642.4,184.8 h 60.8"
       style="fill:none;stroke:#262626;stroke-width:0.666666;stroke-linecap:square;stroke-linejoin:round;stroke-miterlimit:10;stroke-dasharray:none;stroke-opacity:1" />
    <path
       id="path172"
       d="m 648.81421,184.8 v -1.31204"
       style="fill:none;stroke:#262626;stroke-width:0.666666;stroke-linecap:square;stroke-linejoin:round;stroke-miterlimit:10;stroke-dasharray:none;stroke-opacity:1" />
    <path
       id="path173"
       d="m 683.81602,184.8 v -1.31204"
       style="fill:none;stroke:#262626;stroke-width:0.666666;stroke-linecap:square;stroke-linejoin:round;stroke-miterlimit:10;stroke-dasharray:none;stroke-opacity:1" />
    <path
       id="path176"
       d="m 635.76172,198.23046 c 0,-1.125 0.11328,-2.03125 0.34375,-2.71875 0.23828,-0.6875 0.58594,-1.21875 1.04687,-1.59375 0.45704,-0.375 1.03125,-0.5625 1.71875,-0.5625 0.51954,0 0.97266,0.10547 1.35938,0.3125 0.38281,0.19922 0.70312,0.4961 0.95312,0.89063 0.25,0.38672 0.44532,0.85937 0.59375,1.42187 0.14454,0.55469 0.21875,1.30469 0.21875,2.25 0,1.11719 -0.12109,2.01563 -0.35937,2.70313 -0.23047,0.6875 -0.57422,1.21875 -1.03125,1.59375 -0.44922,0.375 -1.02734,0.5625 -1.73438,0.5625 -0.91796,0 -1.63671,-0.32813 -2.15625,-0.98438 -0.63671,-0.78906 -0.95312,-2.08203 -0.95312,-3.875 z m 1.20312,0 c 0,1.5625 0.17969,2.60547 0.54688,3.125 0.375,0.52344 0.82812,0.78125 1.35937,0.78125 0.53907,0 0.99219,-0.25781 1.35938,-0.78125 0.375,-0.51953 0.5625,-1.5625 0.5625,-3.125 0,-1.57031 -0.1875,-2.61328 -0.5625,-3.125 -0.36719,-0.51953 -0.82031,-0.78125 -1.35938,-0.78125 -0.54296,0 -0.97656,0.23047 -1.29687,0.6875 -0.40625,0.58594 -0.60938,1.65625 -0.60938,3.21875 z m 6.86719,4.70313 v -1.32813 h 1.34375 v 1.32813 z m 3.05078,-4.70313 c 0,-1.125 0.11328,-2.03125 0.34375,-2.71875 0.23828,-0.6875 0.58594,-1.21875 1.04688,-1.59375 0.45703,-0.375 1.03125,-0.5625 1.71875,-0.5625 0.51953,0 0.97265,0.10547 1.35937,0.3125 0.38282,0.19922 0.70313,0.4961 0.95313,0.89063 0.25,0.38672 0.44531,0.85937 0.59375,1.42187 0.14453,0.55469 0.21875,1.30469 0.21875,2.25 0,1.11719 -0.1211,2.01563 -0.35938,2.70313 -0.23047,0.6875 -0.57422,1.21875 -1.03125,1.59375 -0.44922,0.375 -1.02734,0.5625 -1.73437,0.5625 -0.91797,0 -1.63672,-0.32813 -2.15625,-0.98438 -0.63672,-0.78906 -0.95313,-2.08203 -0.95313,-3.875 z m 1.20313,0 c 0,1.5625 0.17969,2.60547 0.54687,3.125 0.375,0.52344 0.82813,0.78125 1.35938,0.78125 0.53906,0 0.99219,-0.25781 1.35937,-0.78125 0.375,-0.51953 0.5625,-1.5625 0.5625,-3.125 0,-1.57031 -0.1875,-2.61328 -0.5625,-3.125 -0.36718,-0.51953 -0.82031,-0.78125 -1.35937,-0.78125 -0.54297,0 -0.97656,0.23047 -1.29688,0.6875 -0.40625,0.58594 -0.60937,1.65625 -0.60937,3.21875 z m 9.97265,4.70313 v -2.28125 h -4.14062 v -1.07813 l 4.34375,-6.1875 h 0.96875 v 6.1875 h 1.28125 v 1.07813 h -1.28125 v 2.28125 z m 0,-3.35938 v -4.29687 l -2.98437,4.29687 z m 0,0"
       style="fill:#262626;fill-opacity:1;fill-rule:nonzero;stroke:none;stroke-width:0.8"
       aria-label="0.04" />
    <path
       id="path177"
       d="m 667.16407,198.23046 c 0,-1.125 0.11328,-2.03125 0.34375,-2.71875 0.23828,-0.6875 0.58593,-1.21875 1.04687,-1.59375 0.45703,-0.375 1.03125,-0.5625 1.71875,-0.5625 0.51953,0 0.97266,0.10547 1.35938,0.3125 0.38281,0.19922 0.70312,0.4961 0.95312,0.89063 0.25,0.38672 0.44531,0.85937 0.59375,1.42187 0.14453,0.55469 0.21875,1.30469 0.21875,2.25 0,1.11719 -0.12109,2.01563 -0.35937,2.70313 -0.23047,0.6875 -0.57422,1.21875 -1.03125,1.59375 -0.44922,0.375 -1.02735,0.5625 -1.73438,0.5625 -0.91797,0 -1.63672,-0.32813 -2.15625,-0.98438 -0.63672,-0.78906 -0.95312,-2.08203 -0.95312,-3.875 z m 1.20312,0 c 0,1.5625 0.17969,2.60547 0.54688,3.125 0.375,0.52344 0.82812,0.78125 1.35937,0.78125 0.53906,0 0.99219,-0.25781 1.35938,-0.78125 0.375,-0.51953 0.5625,-1.5625 0.5625,-3.125 0,-1.57031 -0.1875,-2.61328 -0.5625,-3.125 -0.36719,-0.51953 -0.82032,-0.78125 -1.35938,-0.78125 -0.54297,0 -0.97656,0.23047 -1.29687,0.6875 -0.40625,0.58594 -0.60938,1.65625 -0.60938,3.21875 z m 6.86719,4.70313 v -1.32813 h 1.34375 v 1.32813 z m 3.04687,-4.70313 c 0,-1.125 0.11329,-2.03125 0.34375,-2.71875 0.23829,-0.6875 0.58594,-1.21875 1.04688,-1.59375 0.45703,-0.375 1.03125,-0.5625 1.71875,-0.5625 0.51953,0 0.97266,0.10547 1.35937,0.3125 0.38282,0.19922 0.70313,0.4961 0.95313,0.89063 0.25,0.38672 0.44531,0.85937 0.59375,1.42187 0.14453,0.55469 0.21875,1.30469 0.21875,2.25 0,1.11719 -0.12109,2.01563 -0.35938,2.70313 -0.23046,0.6875 -0.57421,1.21875 -1.03125,1.59375 -0.44921,0.375 -1.02734,0.5625 -1.73437,0.5625 -0.91797,0 -1.63672,-0.32813 -2.15625,-0.98438 -0.63672,-0.78906 -0.95313,-2.08203 -0.95313,-3.875 z m 1.20313,0 c 0,1.5625 0.17969,2.60547 0.54687,3.125 0.375,0.52344 0.82813,0.78125 1.35938,0.78125 0.53906,0 0.99219,-0.25781 1.35937,-0.78125 0.375,-0.51953 0.5625,-1.5625 0.5625,-3.125 0,-1.57031 -0.1875,-2.61328 -0.5625,-3.125 -0.36718,-0.51953 -0.82031,-0.78125 -1.35937,-0.78125 -0.54297,0 -0.97656,0.23047 -1.29688,0.6875 -0.40625,0.58594 -0.60937,1.65625 -0.60937,3.21875 z m 9.97656,4.70313 v -2.28125 h -4.14062 v -1.07813 l 4.34375,-6.1875 h 0.96875 v 6.1875 h 1.28125 v 1.07813 h -1.28125 v 2.28125 z m 0,-3.35938 v -4.29687 l -2.98437,4.29687 z m 3.64844,0.85938 1.23437,-0.10938 c 0.0937,0.60547 0.30469,1.0586 0.64063,1.35938 0.33203,0.30469 0.73437,0.45312 1.20312,0.45312 0.5625,0 1.03516,-0.21093 1.42188,-0.64062 0.39453,-0.42578 0.59375,-0.98828 0.59375,-1.6875 0,-0.66406 -0.1875,-1.19141 -0.5625,-1.57813 -0.375,-0.39453 -0.87109,-0.59375 -1.48438,-0.59375 -0.375,0 -0.71484,0.0899 -1.01562,0.26563 -0.30469,0.16797 -0.54297,0.39062 -0.71875,0.67187 l -1.09375,-0.15625 0.92187,-4.89062 H 699 v 1.10937 h -3.8125 l -0.51562,2.5625 c 0.57031,-0.39453 1.17187,-0.59375 1.79687,-0.59375 0.83204,0 1.53516,0.29297 2.10938,0.875 0.57031,0.57422 0.85937,1.3125 0.85937,2.21875 0,0.86719 -0.25,1.60938 -0.75,2.23438 -0.61718,0.77344 -1.44921,1.15625 -2.5,1.15625 -0.875,0 -1.58984,-0.23828 -2.14062,-0.71875 -0.54297,-0.48828 -0.85547,-1.13281 -0.9375,-1.9375 z m 0,0"
       style="fill:#262626;fill-opacity:1;fill-rule:nonzero;stroke:none;stroke-width:0.8"
       aria-label="0.045" />
    <path
       id="path178"
       d="M 642.4,184.8 V 53.6"
       style="fill:none;stroke:#262626;stroke-width:0.666666;stroke-linecap:square;stroke-linejoin:round;stroke-miterlimit:10;stroke-dasharray:none;stroke-opacity:1" />
    <path
       id="path180"
       d="m 642.4,184.8 h 1.31201"
       style="fill:none;stroke:#262626;stroke-width:0.666666;stroke-linecap:square;stroke-linejoin:round;stroke-miterlimit:10;stroke-dasharray:none;stroke-opacity:1" />
    <path
       id="path181"
       d="m 642.4,141.06667 h 1.31201"
       style="fill:none;stroke:#262626;stroke-width:0.666666;stroke-linecap:square;stroke-linejoin:round;stroke-miterlimit:10;stroke-dasharray:none;stroke-opacity:1" />
    <path
       id="path182"
       d="m 642.4,97.333331 h 1.31201"
       style="fill:none;stroke:#262626;stroke-width:0.666666;stroke-linecap:square;stroke-linejoin:round;stroke-miterlimit:10;stroke-dasharray:none;stroke-opacity:1" />
    <path
       id="path192"
       d="m 642.4,55.721403 3.03999,-0.131461 3.03999,-0.114696 3.04004,-0.100348 3.03999,-0.08634 3.03999,-0.07249 3.03999,-0.05889 3.03999,-0.04538 3.04004,-0.03228 3.03999,-0.01927 3.03999,-0.0063 3.03999,0.0063 3.03999,0.01902 3.04004,0.03153 3.03999,0.04387 3.03999,0.05622 3.03999,0.0684 3.03999,0.0805 3.04004,0.108939 3.03999,0.105853 3.03999,0.118955"
       style="fill:none;stroke:#000000;stroke-width:1.33334;stroke-linecap:butt;stroke-linejoin:round;stroke-miterlimit:10;stroke-dasharray:none;stroke-opacity:1" />
    <path
       id="path193"
       d="m 672.8,51.053918 v 8 m -4,-4 h 8 m -6.82843,-2.828427 5.65686,5.656854 m -5.65686,0 5.65686,-5.656854"
       style="fill:none;stroke:#000000;stroke-width:0.666666;stroke-linecap:butt;stroke-linejoin:miter;stroke-miterlimit:10;stroke-dasharray:none;stroke-opacity:1" />
    <text
       xml:space="preserve"
       style="font-style:normal;font-weight:normal;font-size:13.3333px;line-height:1.25;font-family:sans-serif;fill:#000000;fill-opacity:1;stroke:none;stroke-width:1"
       x="232.06366"
       y="220.23332"
       id="text11678-0-1-6-3"
       inkscape:export-filename="\\net1.cec.eu.int\jrc-services\IPR-Users\schuhle\My Documents\COVID_Modelling\Code\COVID_model\Fits.png"
       inkscape:export-xdpi="600"
       inkscape:export-ydpi="600"><tspan
         sodipodi:role="line"
         x="232.06366"
         y="220.23332"
         style="font-style:normal;font-variant:normal;font-weight:normal;font-stretch:normal;font-size:13.3333px;font-family:Helvetica;-inkscape-font-specification:Helvetica;stroke-width:1"
         id="tspan60"><tspan
           style="font-style:italic;font-variant:normal;font-weight:normal;font-stretch:normal;font-family:Helvetica;-inkscape-font-specification:'Helvetica Italic'"
           id="tspan56"></tspan><tspan
           style="font-size:65%;baseline-shift:sub"
           id="tspan55">0</tspan></tspan></text>
    <text
       xml:space="preserve"
       style="font-style:normal;font-weight:normal;font-size:13.3333px;line-height:1.25;font-family:sans-serif;fill:#000000;fill-opacity:1;stroke:none;stroke-width:1"
       x="316.32614"
       y="220.0703"
       id="text11678-0-1-6-3-4"
       inkscape:export-filename="\\net1.cec.eu.int\jrc-services\IPR-Users\schuhle\My Documents\COVID_Modelling\Code\COVID_model\Fits.png"
       inkscape:export-xdpi="600"
       inkscape:export-ydpi="600"><tspan
         sodipodi:role="line"
         x="316.32614"
         y="220.0703"
         style="font-style:normal;font-variant:normal;font-weight:normal;font-stretch:normal;font-size:13.3333px;font-family:Helvetica;-inkscape-font-specification:Helvetica;stroke-width:1"
         id="tspan60-2"><tspan
           style="font-style:italic;font-variant:normal;font-weight:normal;font-stretch:normal;font-family:Helvetica;-inkscape-font-specification:'Helvetica Italic'"
           id="tspan56-3">d</tspan><tspan
           style="font-size:65%;baseline-shift:sub"
           id="tspan55-9">I</tspan></tspan></text>
    <text
       xml:space="preserve"
       style="font-style:normal;font-weight:normal;font-size:13.3333px;line-height:1.25;font-family:sans-serif;fill:#000000;fill-opacity:1;stroke:none;stroke-width:1"
       x="487.08432"
       y="220.0703"
       id="text11678-0-1-6-3-3"
       inkscape:export-filename="\\net1.cec.eu.int\jrc-services\IPR-Users\schuhle\My Documents\COVID_Modelling\Code\COVID_model\Fits.png"
       inkscape:export-xdpi="600"
       inkscape:export-ydpi="600"><tspan
         sodipodi:role="line"
         x="487.08432"
         y="220.0703"
         style="font-style:normal;font-variant:normal;font-weight:normal;font-stretch:normal;font-size:13.3333px;font-family:Helvetica;-inkscape-font-specification:Helvetica;stroke-width:1"
         id="tspan60-1"><tspan
           style="font-style:italic;font-variant:normal;font-weight:normal;font-stretch:normal;font-family:Helvetica;-inkscape-font-specification:'Helvetica Italic'"
           id="tspan56-9">d</tspan><tspan
           style="font-size:65%;baseline-shift:sub"
           id="tspan55-5">V</tspan></tspan></text>
    <text
       xml:space="preserve"
       style="font-style:normal;font-weight:normal;font-size:13.3333px;line-height:1.25;font-family:sans-serif;fill:#000000;fill-opacity:1;stroke:none;stroke-width:1"
       x="145.67688"
       y="219.96451"
       id="text11678-0-1-6-3-33"
       inkscape:export-filename="\\net1.cec.eu.int\jrc-services\IPR-Users\schuhle\My Documents\COVID_Modelling\Code\COVID_model\Fits.png"
       inkscape:export-xdpi="600"
       inkscape:export-ydpi="600"><tspan
         sodipodi:role="line"
         x="145.67688"
         y="219.96451"
         style="font-style:normal;font-variant:normal;font-weight:normal;font-stretch:normal;font-size:13.3333px;font-family:Helvetica;-inkscape-font-specification:Helvetica;stroke-width:1"
         id="tspan60-16"><tspan
           style="font-style:italic;font-variant:normal;font-weight:normal;font-stretch:normal;font-family:Helvetica;-inkscape-font-specification:'Helvetica Italic'"
           id="tspan56-4">d</tspan><tspan
           style="font-size:65%;baseline-shift:sub"
           id="tspan55-7">S</tspan></tspan></text>
    <text
       xml:space="preserve"
       style="font-style:normal;font-weight:normal;font-size:13.3333px;line-height:1.25;font-family:sans-serif;fill:#000000;fill-opacity:1;stroke:none;stroke-width:1"
       x="400.10425"
       y="220.0703"
       id="text11678-0-1-6-3-32"
       inkscape:export-filename="\\net1.cec.eu.int\jrc-services\IPR-Users\schuhle\My Documents\COVID_Modelling\Code\COVID_model\Fits.png"
       inkscape:export-xdpi="600"
       inkscape:export-ydpi="600"><tspan
         sodipodi:role="line"
         x="400.10425"
         y="220.0703"
         style="font-style:normal;font-variant:normal;font-weight:normal;font-stretch:normal;font-size:13.3333px;font-family:Helvetica;-inkscape-font-specification:Helvetica;stroke-width:1"
         id="tspan60-9"><tspan
           style="font-style:italic;font-variant:normal;font-weight:normal;font-stretch:normal;font-family:Helvetica;-inkscape-font-specification:'Helvetica Italic'"
           id="tspan56-34">p</tspan><tspan
           style="font-size:65%;baseline-shift:sub"
           id="tspan55-1">V</tspan></tspan></text>
    <text
       xml:space="preserve"
       style="font-style:normal;font-weight:normal;font-size:13.3333px;line-height:1.25;font-family:sans-serif;fill:#000000;fill-opacity:1;stroke:none;stroke-width:1"
       x="577.10101"
       y="220.0703"
       id="text11678-0-1-6-3-5"
       inkscape:export-filename="\\net1.cec.eu.int\jrc-services\IPR-Users\schuhle\My Documents\COVID_Modelling\Code\COVID_model\Fits.png"
       inkscape:export-xdpi="600"
       inkscape:export-ydpi="600"><tspan
         sodipodi:role="line"
         x="577.10101"
         y="220.0703"
         style="font-style:normal;font-variant:normal;font-weight:normal;font-stretch:normal;font-size:13.3333px;font-family:Helvetica;-inkscape-font-specification:Helvetica;stroke-width:1"
         id="tspan60-5"><tspan
           style="font-style:italic;font-variant:normal;font-weight:normal;font-stretch:normal;font-family:Helvetica;-inkscape-font-specification:'Helvetica Italic'"
           id="tspan56-7">p</tspan><tspan
           style="font-size:65%;baseline-shift:sub"
           id="tspan55-57">B</tspan></tspan></text>
    <text
       xml:space="preserve"
       style="font-style:normal;font-weight:normal;font-size:13.3333px;line-height:1.25;font-family:sans-serif;fill:#000000;fill-opacity:1;stroke:none;stroke-width:1"
       x="666.08112"
       y="220.0703"
       id="text11678-0-1-6-3-7"
       inkscape:export-filename="\\net1.cec.eu.int\jrc-services\IPR-Users\schuhle\My Documents\COVID_Modelling\Code\COVID_model\Fits.png"
       inkscape:export-xdpi="600"
       inkscape:export-ydpi="600"><tspan
         sodipodi:role="line"
         x="666.08112"
         y="220.0703"
         style="font-style:normal;font-variant:normal;font-weight:normal;font-stretch:normal;font-size:13.3333px;font-family:Helvetica;-inkscape-font-specification:Helvetica;stroke-width:1"
         id="tspan60-0"><tspan
           style="font-style:italic;font-variant:normal;font-weight:normal;font-stretch:normal;font-family:Helvetica;-inkscape-font-specification:'Helvetica Italic'"
           id="tspan56-73">d</tspan><tspan
           style="font-size:65%;baseline-shift:sub"
           id="tspan55-18">B</tspan></tspan></text>
    <text
       xml:space="preserve"
       style="font-size:13.3333px;line-height:1.25;font-family:sans-serif"
       x="248.83344"
       y="221.14415"
       id="text195"><tspan
         sodipodi:role="line"
         id="tspan195"
         x="248.83344"
         y="221.14415"
         style="font-style:normal;font-variant:normal;font-weight:normal;font-stretch:normal;font-size:13.3333px;font-family:Helvetica;-inkscape-font-specification:Helvetica">(10<tspan
   style="font-size:65%;baseline-shift:super"
   id="tspan197">-9</tspan>)</tspan></text>
    <text
       xml:space="preserve"
       style="font-size:13.3333px;line-height:1.25;font-family:sans-serif"
       x="592.95447"
       y="221.09126"
       id="text195-5"><tspan
         sodipodi:role="line"
         id="tspan195-54"
         x="592.95447"
         y="221.09126"
         style="font-style:normal;font-variant:normal;font-weight:normal;font-stretch:normal;font-size:13.3333px;font-family:Helvetica;-inkscape-font-specification:Helvetica">(10<tspan
   style="font-size:65%;baseline-shift:super"
   id="tspan197-8">-7</tspan>)</tspan></text>
    <text
       xml:space="preserve"
       style="font-size:13.3333px;line-height:1.25;font-family:sans-serif"
       x="-131.99295"
       y="89.682861"
       id="text195-6"
       transform="rotate(-90)"><tspan
         sodipodi:role="line"
         id="tspan195-5"
         x="-131.99295"
         y="89.682861"
         style="font-style:normal;font-variant:normal;font-weight:normal;font-stretch:normal;font-size:13.3333px;font-family:Helvetica;-inkscape-font-specification:Helvetica">logL</tspan></text>
    <path
       id="path114-9"
       d="m 183.2,184.8 v -1.31204"
       style="fill:none;stroke:#262626;stroke-width:0.666666;stroke-linecap:square;stroke-linejoin:round;stroke-miterlimit:10;stroke-dasharray:none;stroke-opacity:1" />
  </g>
</svg>
